<svg xmlns="http://www.w3.org/2000/svg" xmlns:xlink="http://www.w3.org/1999/xlink" viewBox="0 0 189.54 19.35"><defs><path id="a" d="M0 0h189.54v19.35H0z"/></defs><clipPath id="b"><use xlink:href="#a" overflow="visible"/></clipPath><path d="M184.95 12.29c0 1.34-.37 2.24-1.1 2.7-.57.37-1.59.55-3.07.55h-8.26V4.02h8.26c1.4 0 2.41.19 3.01.58.77.5 1.16 1.39 1.16 2.67v5.02zm3.01-10.42c-1.05-1.1-2.79-1.65-5.22-1.65h-14.81v19.13h14.84c2.47 0 4.23-.57 5.28-1.71.99-1.1 1.49-2.89 1.49-5.37V7.19c-.01-2.44-.53-4.21-1.58-5.32m-27.12 7.47c1.18-.26 1.97-.78 2.38-1.57.33-.62.5-1.62.5-2.98 0-3.2-2.13-4.8-6.38-4.8h-7.71c-1.97 0-3.53.5-4.67 1.49-1.2 1.05-1.8 2.53-1.8 4.44h4.31c0-1.54 1.06-2.31 3.18-2.31h5.64c1 0 1.68.09 2.04.28.53.28.8.85.8 1.74 0 .9-.26 1.53-.77 1.9-.43.29-1.11.44-2.07.44h-5.22v3.39h4.14c1.38 0 2.29.06 2.74.19.99.28 1.49.92 1.49 1.93 0 .92-.28 1.54-.83 1.87-.41.26-1.09.38-2.05.38h-5.83c-.98 0-1.67-.07-2.07-.22-.7-.26-1.05-.79-1.05-1.6h-4.45c0 3.62 2.16 5.43 6.47 5.43h7.74c2.14 0 3.74-.39 4.81-1.18 1.24-.92 1.85-2.41 1.85-4.47 0-1.05-.28-1.97-.84-2.76-.58-.78-1.36-1.31-2.35-1.59m-33.91 7.05c-.26.16-.79.25-1.6.25h-6.9v-3.29h7.03c.72 0 1.2.08 1.45.23.35.22.52.68.52 1.38 0 .74-.17 1.21-.5 1.43m-8.5-8.68h7c.95 0 1.43.48 1.43 1.43 0 .48-.11.88-.33 1.18-.26.33-.62.5-1.08.5h-7.03V7.71zm10.09 4.07c.75-.23 1.25-.63 1.51-1.2.18-.4.27-1.06.27-1.98 0-1.39-.5-2.37-1.51-2.94-.77-.44-1.92-.66-3.44-.66h-10.36v14.35h11.07c1.6 0 2.78-.3 3.54-.89.84-.66 1.26-1.77 1.26-3.33 0-.95-.17-1.67-.51-2.17s-.94-.89-1.83-1.18m-39.93 7.57h14.69v-2.71H92.03v-3.29h10.9v-2.5h-10.9V7.71h11.25V5H88.59v14.35zM85.26 5h-4.87l-5.66 5.35h-1.72V5h-3.44v5.35h-1.72L62.19 5h-4.87l7.54 6.72-7.92 7.63h4.6l6.24-6.14h1.78v6.14H73v-6.14h1.78l6.24 6.14h4.6l-7.92-7.63L85.26 5zM54.19 5h-5.16l-6.28 5.35h-2.03V5h-3.44v14.35h3.44v-6.14h2.09l6.65 6.14h5.06l-8.81-7.63L54.19 5zm-32.41 8.02l2.84-5.33h.16l2.74 5.33h-5.74zM22.13 5L14.5 19.35h4.02l1.86-3.62h8.52l1.84 3.62h4.04L27.23 5h-5.1zm-6.61 0H0v2.85h6.01v11.49h3.44V7.86h6.07V5z" clip-path="url(#b)"/></svg>