<svg xmlns="http://www.w3.org/2000/svg" xmlns:xlink="http://www.w3.org/1999/xlink" viewBox="0 0 26.89 49.39"><defs><path id="a" d="M0 0h26.89v49.4H0z"/></defs><clipPath id="b"><use xlink:href="#a" overflow="visible"/></clipPath><path d="M21.66 23.8v-6h-1.93v6h-5.16v1.93h5.16v6h1.93v-6h5.23V23.8h-5.23zM10.25 42.7c0 3.17-1.1 4.9-4.13 4.9-2.96 0-4.13-1.72-4.13-4.9V22.9c0-2.97 2.06-5.52 4.61-5.52 2.41 0 3.65.96 3.65 4.9V42.7zm-3.1-27.11c-2.41 0-4.33 1.59-5.16 3.52V6.9c0-3.17 1.17-5.1 4.13-5.1 3.03 0 4.13 1.93 4.13 5.1v4.07h1.93V7.04c0-4.9-2.2-7.04-6.05-7.04C2.27 0 0 2.14 0 7.04v35.53c0 4.9 2.27 6.83 6.12 6.83s6.19-1.93 6.19-6.83V22.28c0-5.31-2.27-6.69-5.16-6.69" clip-path="url(#b)" fill="#92ccf2"/></svg>