<svg xmlns="http://www.w3.org/2000/svg" xmlns:xlink="http://www.w3.org/1999/xlink" viewBox="0 0 84.42 25.51"><defs><path id="a" d="M0 0h84.42v25.51H0z"/></defs><clipPath id="b"><use xlink:href="#a" overflow="visible"/></clipPath><path d="M55.2 23.51a1.14 1.14 0 0 0-.82-.32c-.33 0-.6.12-.82.32-.22.22-.34.51-.35.84.01.34.12.61.35.82a1.156 1.156 0 0 0 1.64 0c.23-.21.34-.48.34-.82 0-.33-.11-.62-.34-.84m-1.38.24c.14-.15.33-.24.57-.24.24 0 .42.09.56.24.14.16.22.36.22.6 0 .25-.08.43-.22.6-.14.15-.33.22-.56.24a.808.808 0 0 1-.57-.24.847.847 0 0 1-.23-.6c0-.24.08-.44.23-.6m7.26-.56c.31 0 .54.12.67.36l-.27.18a.422.422 0 0 0-.39-.22c-.2.01-.3.09-.31.27 0 .07.03.15.08.19.07.05.16.1.28.14l.15.08c.18.06.31.16.41.25.09.09.15.24.16.43-.01.21-.08.37-.22.47-.13.1-.32.16-.54.16-.4-.01-.66-.17-.82-.48l.31-.15c.1.19.27.29.51.3.26-.01.39-.11.41-.3a.361.361 0 0 0-.11-.24c-.08-.05-.15-.09-.25-.14l-.15-.05c-.17-.08-.3-.15-.41-.24a.63.63 0 0 1-.16-.41c.01-.18.07-.32.18-.42a.64.64 0 0 1 .47-.18m-39.01.79c.06.05.15.1.27.14l.15.08c.18.06.31.16.42.25.09.1.14.24.15.43-.01.21-.07.37-.22.47-.13.1-.31.16-.54.16-.39-.01-.66-.17-.81-.48l.3-.15c.1.19.27.29.51.3.25-.01.4-.11.41-.3a.355.355 0 0 0-.1-.24c-.08-.05-.16-.09-.25-.14l-.17-.07c-.17-.08-.3-.15-.4-.24a.638.638 0 0 1-.17-.41c.01-.18.08-.32.19-.42.11-.11.27-.17.47-.17.3 0 .53.12.66.36l-.26.18a.438.438 0 0 0-.4-.22c-.2.01-.3.09-.3.27.01.07.03.15.09.2m7.45-.76v.33h-.67v1.95h-.35v-1.95h-.67v-.33h1.69zm6.6 1.46c0 .27-.09.48-.24.63-.16.13-.37.2-.61.2-.26 0-.46-.07-.61-.2-.16-.15-.25-.35-.25-.63v-1.47h.35v1.44c.01.36.18.53.52.53.33 0 .5-.17.5-.53v-1.44h.36v1.47zm5.65-1.46h-.62v2.27h.62c.38-.01.67-.12.88-.33.21-.2.32-.48.32-.82 0-.33-.11-.61-.32-.81-.22-.2-.5-.31-.88-.31m-.28.32h.27c.28.01.5.07.63.22s.2.35.2.59c0 .25-.07.43-.2.58-.13.15-.35.23-.63.24h-.27v-1.63zm29.76-17.1H77v.58h-1.79l3.62 8.88 3.83-10.46H80.7v-.58h3.72v.57h-1.07l-5.21 14.1c-.28.76-.57 1.44-.88 2.01-.3.56-.58.97-.85 1.23-.52.51-1.2.75-2.07.75-.37 0-.74-.06-1.13-.16-.37-.12-.67-.26-.91-.43v-4.18h.72c.12.43.28.99.47 1.67.4 1.5.91 2.24 1.53 2.24.47 0 .88-.24 1.24-.69.19-.24.39-.56.59-.97.21-.43.4-.89.56-1.39l.21-.67L72.5 7.01h-1.25v-.57zM64.94 0h-3.96v.58h1.46v17.5h-1.46v.58h5.42v-.58h-1.46V0zm7.2 16.68L67.05 9.2l3.92-4.04h1.25v-.57h-4.19v.58h2.04l-4.93 5.14 4.6 6.96h3.52v-.58h-1.12zM51.6 2.88c-.82.55-1.22 1.26-1.22 2.09 0 1.31 1.52 2.56 4.56 3.76.14.07.25.1.3.13 2.35.92 3.9 1.74 4.61 2.44.7.71 1.05 1.61 1.05 2.65 0 1.5-.67 2.76-2.02 3.76-1.36 1.02-3.06 1.52-5.13 1.52-1.12 0-2.17-.13-3.13-.42-.96-.28-1.67-.65-2.16-1.1v-5.17h.6c.01.04.03.09.06.17 1.21 3.98 2.8 5.95 4.75 5.95 1.32 0 2.4-.36 3.25-1.09.86-.73 1.28-1.63 1.28-2.69 0-.74-.24-1.36-.75-1.88-.49-.49-1.58-1.1-3.28-1.78-2.57-1.03-4.21-1.88-4.92-2.56-.71-.69-1.06-1.54-1.06-2.57 0-1.33.61-2.43 1.85-3.27 1.22-.85 2.83-1.27 4.84-1.27.77 0 1.57.09 2.37.24.8.16 1.6.4 2.4.73V7.2h-.62c-.04-.13-.09-.3-.18-.52-1.02-3.1-2.48-4.64-4.36-4.64-1.25 0-2.27.28-3.09.84M44.31 10v-.38c0-1.63-.45-2.91-1.36-3.82-.89-.9-2.15-1.36-3.76-1.36-1.74 0-3.18.62-4.32 1.85-1.16 1.23-1.74 2.81-1.74 4.72 0 1.93.58 3.51 1.74 4.75 1.16 1.25 2.6 1.88 4.34 1.88 1.54 0 2.78-.45 3.69-1.37.91-.89 1.43-2.19 1.56-3.9h-.72c-.14 1.45-.57 2.57-1.31 3.38-.74.8-1.7 1.21-2.88 1.21-1.22 0-2.13-.51-2.76-1.51-.63-.99-.94-2.46-.94-4.41 0-.13.01-.33.02-.56 0-.24.01-.4.01-.5h8.43zm-2.72-1.15c-.01.17-.01.32-.02.5l-5.59-.01c.07-1.39.37-2.47.91-3.24.56-.76 1.3-1.15 2.24-1.15.83 0 1.45.28 1.85.85.42.57.61 1.45.61 2.6v.45zM20.12 7.01v-.57h4.07v9.36c0 .84.15 1.49.47 1.93.14.21.38.37.72.49.3.11.61.15.94.15.84 0 1.49-.38 1.95-1.13.47-.76.71-1.82.71-3.19V5.43H27.1v-.57h4.38v14.07h1.46v.66H29.1v-2.97c-.24.81-.68 1.45-1.3 1.93-.3.22-.7.4-1.19.53-.45.12-.9.17-1.35.17-1.34 0-2.28-.34-2.83-1.02-.57-.68-.85-2.01-.85-4V7.01h-1.46zM18.73 0v16.8h1.56v.57h-5.62v-.57h1.46V.57h-1.46V0h4.06zM0 2.42h1.67v15.86H0v.58h5.76c1.62 0 2.88-.06 3.79-.19.89-.13 1.63-.34 2.23-.64.89-.43 1.56-.98 2.02-1.65.46-.67.7-1.42.7-2.26 0-1.23-.53-2.25-1.59-3.01-1.05-.77-2.53-1.21-4.44-1.34 1.61-.19 2.84-.62 3.7-1.28.86-.66 1.29-1.52 1.29-2.58 0-.71-.23-1.38-.68-1.98-.45-.62-1.07-1.1-1.86-1.46-.53-.22-1.13-.39-1.82-.48-.7-.11-1.85-.16-3.47-.16H0v.59zm4.48 0h1.05c1.88 0 3.18.25 3.9.79.73.53 1.09 1.43 1.09 2.72 0 1.22-.43 2.14-1.29 2.75-.86.61-2.17.91-3.9.91h-.85V2.42zm5.68 8.64c.93.61 1.4 1.61 1.4 2.99 0 1.52-.42 2.6-1.24 3.26-.83.63-2.25.96-4.3.96H4.48v-8.12h.92c2.24 0 3.82.3 4.76.91m71.22 6.32v.09h-.28v.76h-.11v-.76h-.29v-.09h.68zm.31 0l.27.72.27-.72h.15v.85h-.11v-.71l-.27.71h-.1l-.27-.71v.71h-.11v-.85h.17zm-33.78 5.84h.36v2.27h-.36v-2.27z" clip-path="url(#b)" fill="#92ccf2"/></svg>