<svg xmlns="http://www.w3.org/2000/svg" xmlns:xlink="http://www.w3.org/1999/xlink" viewBox="0 0 131.58 131.58"><defs><path id="a" d="M0 0h131.58v131.58H0z"/></defs><clipPath id="b"><use xlink:href="#a" overflow="visible"/></clipPath><path d="M65.79 129.08c34.96 0 63.29-28.34 63.29-63.29S100.75 2.5 65.79 2.5 2.5 30.84 2.5 65.79s28.34 63.29 63.29 63.29" clip-path="url(#b)" fill="#fff"/><defs><path id="c" d="M2.5 65.79c0 34.95 28.34 63.29 63.29 63.29 34.96 0 63.29-28.34 63.29-63.29 0-34.96-28.34-63.29-63.29-63.29S2.5 30.84 2.5 65.79"/></defs><clipPath id="d"><use xlink:href="#c" overflow="visible"/></clipPath><path d="M95.76 52H68.39v12.45h27.37c1.43 0 2.6-1.17 2.6-2.6V54.6c0-1.43-1.17-2.6-2.6-2.6m-62.53 2.6v7.25c0 1.43 1.17 2.6 2.6 2.6H63.2V52H35.83c-1.43 0-2.6 1.17-2.6 2.6m3.9 15.05v26.02c0 1.43 1.17 2.6 2.6 2.6H63.2V67.05H39.73c-1.43 0-2.6 1.17-2.6 2.6m54.73-2.6H68.39v31.22h23.47c1.43 0 2.6-1.17 2.6-2.6V69.65c0-1.43-1.17-2.6-2.6-2.6m-39.8-26.79c-.25-.51-.39-1.17.44-2.23.44-.56.89-.82 1.46-.82.18 0 .37.03.58.07 1.6.39 3.76 2.15 5.77 4.71a24.66 24.66 0 0 1 2.18 3.26c-4.72-.72-9.39-2.84-10.43-4.99M71.27 42c2.01-2.57 4.17-4.33 5.77-4.71.21-.05.4-.07.58-.07.57 0 1.02.26 1.46.82.83 1.06.69 1.72.44 2.23-1.04 2.15-5.71 4.27-10.45 4.99.58-1.01 1.31-2.13 2.2-3.26m4.46 5.52c2.58-.99 5.95-2.76 7.3-5.55 1.01-2.08.69-4.33-.89-6.34-1.53-1.94-3.66-2.69-6.02-2.13-4.01.96-8.02 5.58-10.34 9.67-2.32-4.08-6.33-8.71-10.34-9.67-2.36-.57-4.49.19-6.02 2.13-1.58 2.01-1.89 4.26-.89 6.34 1.35 2.79 4.72 4.56 7.31 5.55 3.15 1.21 6.77 1.9 9.93 1.9v-1.28 1.28c3.19 0 6.81-.69 9.96-1.9" clip-path="url(#d)" fill="#92ccf2"/><defs><path id="e" d="M0 0h131.58v131.58H0z"/></defs><clipPath id="f"><use xlink:href="#e" overflow="visible"/></clipPath><circle cx="65.79" cy="65.79" r="63.29" clip-path="url(#f)" fill="none" stroke="#92ccf2" stroke-width="5"/></svg>