<svg version="1.1" id="Слой_1" xmlns="http://www.w3.org/2000/svg" xmlns:xlink="http://www.w3.org/1999/xlink" x="0" y="0" viewBox="0 0 131.58 131.58" xml:space="preserve"><style>.st1{clip-path:url(#SVGID_4_);fill:#92ccf2}</style><defs><path id="SVGID_1_" d="M0 0h131.58v131.58H0z"/></defs><clipPath id="SVGID_2_"><use xlink:href="#SVGID_1_" overflow="visible"/></clipPath><path d="M65.79 129.08c34.96 0 63.29-28.34 63.29-63.29S100.75 2.5 65.79 2.5 2.5 30.84 2.5 65.79s28.34 63.29 63.29 63.29" clip-path="url(#SVGID_2_)" fill="#fff"/><defs><path id="SVGID_3_" d="M2.5 65.79c0 34.95 28.34 63.29 63.29 63.29 34.96 0 63.29-28.34 63.29-63.29 0-34.96-28.34-63.29-63.29-63.29S2.5 30.84 2.5 65.79"/></defs><clipPath id="SVGID_4_"><use xlink:href="#SVGID_3_" overflow="visible"/></clipPath><path class="st1" d="M46.27 101.52c-7.18-.01-11.15-3.81-11.42-10.94-.06-1.63-.09-3.27-.04-4.9.06-2.22 1.53-3.67 3.45-3.5 1.92.17 3.26 1.83 3.16 3.92-.07 1.47-.28 2.95-.18 4.41.21 2.9 1.54 4.13 4.45 4.35.62.05 26.75.08 39.2.09 3.79 0 5.01-1.09 5.29-4.9.09-1.31-.1-2.64-.1-3.95.02-2.39 1.34-3.88 3.42-3.92 1.9-.04 3.18 1.41 3.25 3.73.05 1.4.08 2.8.06 4.2-.08 6.96-4.4 11.34-11.34 11.4-6.54.05-32.67.02-39.2.01"/><path class="st1" d="M89.09 54c-2.61-2.57-6.15-2.37-9.05.59-2.62 2.66-8.58 8.31-8.58 8.31 0-.82.06-18.27.03-25.89-.01-3.36-1.42-5.67-3.87-6.56-.66-.24-1.32-.37-1.97-.39h-.04c-.65.03-1.31.15-1.97.39-2.45.89-3.86 3.2-3.87 6.56-.03 7.63.03 25.07.03 25.89 0 0-5.96-5.65-8.58-8.31-2.9-2.95-6.44-3.15-9.05-.59-2.5 2.46-2.32 6.01.53 8.87 6.15 6.18 12.3 12.35 18.5 18.47 1.39 1.37 2.91 2.09 4.42 2.15h.04c1.51-.06 3.04-.78 4.42-2.15 6.19-6.13 12.35-12.29 18.49-18.47 2.84-2.87 3.01-6.42.52-8.87"/><defs><path id="SVGID_5_" d="M0 0h131.58v131.58H0z"/></defs><clipPath id="SVGID_6_"><use xlink:href="#SVGID_5_" overflow="visible"/></clipPath><circle cx="65.79" cy="65.79" r="63.29" clip-path="url(#SVGID_6_)" fill="none" stroke="#92ccf2" stroke-width="5"/></svg>