<svg version="1.1" id="Слой_1" xmlns="http://www.w3.org/2000/svg" xmlns:xlink="http://www.w3.org/1999/xlink" x="0" y="0" viewBox="0 0 235.87 52.61" xml:space="preserve"><style>.st1{fill:#fff}</style><defs><path id="SVGID_1_" d="M0 0h235.87v52.61H0z"/></defs><clipPath id="SVGID_2_"><use xlink:href="#SVGID_1_" overflow="visible"/></clipPath><path d="M68.2 2.14V0H53.51v2.14h7.04L49.9 39.62 39.63 2.14h6.32V0h-18.6v2.14h5.79L22.49 39.62 12.21 2.14h6.32V0H0v2.14h4.7l13.81 50.47h2.32L33.78 7.2l.35-1.65 11.81 47.06h2.3L62.67 2.14h5.53zm5.27 10.59h-.03c-7.55 0-11.97 4.7-11.99 13.39v7.42c.04 8.69 4.46 13.37 11.99 13.37h.03c7.55 0 11.96-4.68 12-13.37v-7.42c-.04-8.69-4.45-13.39-12-13.39m6.13 24.59c0 7.16-2.02 8.22-6.15 8.22-4.09 0-6.15-1.05-6.18-8.05v-15.2c.03-7.02 2.09-8.09 6.18-8.09 4.14 0 6.15 1.08 6.15 8.23 0 .01-.01.01-.01.02V37.3c-.01.01.01.02.01.02m62.02-25.23h-1.85l-10.24 32.74h-3.21v1.42h9.6v-1.42h-4.63l3.12-9.97h8.75l2.74 9.97h-3.64v1.42h11.62v-1.42h-3.15l-9.11-32.74zm-6.79 21.45l4.07-13.01h.32l3.56 13.01h-7.95zm-13.66 11.28l.02-30.61h3.18v-1.43h-8.91l-.01.02h-.02L106 39.36l-8.96-26.57-.01.01v-.01h-8.84v1.45h3.13v30.59h-2.95v1.42h9.31v-1.42h-4.39V15.8l10.51 31.47h1.46l11.07-31.13-.06 28.69h-3.41v1.42h11.88v-1.42h-3.58l.01-.01zm50.81-30.6h4.78v22.1l-13.93-23.47v-.06h-8.13v1.43h2.9v30.62h-2.9v1.41h9.19v-1.41h-4.83V17.13l17.69 29.84.01-.06v.07h1.46V14.22h3.15v-1.43h-9.39v1.43zm12.98 22.79c-1.79 0-3.2 1.59-3.2 3.57 0 1.96 1.42 3.56 3.2 3.56 1.76 0 3.17-1.59 3.17-3.56.01-1.98-1.41-3.57-3.17-3.57m23.01-18.02a.968.968 0 0 0-.15-.19c0-.02 0-.02-.02-.03-.15-.2-.33-.35-.53-.45-.44-.29-1.07-.53-1.98-.53-2.41 0-3.55 1.19-4.62 2.82-.68 1.04-1.39 2.44-1.83 3.29-.01-.44-.14-1.35-.66-2.76-.7-1.87-1.37-2.52-1.46-2.61v-.03h-5.7v1.41h3.61v22.1h-3.61v1.41h12.95v-1.41h-5.11v-15.3c.55-1.36 1.42-3.13 2.68-5.05 1.29-1.63 1.94-2.1 2.69-2.1.33 0 .35 1.48.33 2.22-.01.11-.01.22-.03.33v.11c0 3.21.97 4.07 2.14 4.07 1.18 0 2.13-.78 2.13-4.07 0-1.3-.32-2.45-.84-3.2.02-.01.01-.02.01-.03m25.03 23c-.62 0-.71-.66-.73-.7V18.51h-4.23v18.81c-.05.1-2.81 5.38-6.65 5.38-1.98 0-2.62-1.05-2.62-2.26V18.51h-7.97v1.42h3.72v18.29s-.18 5.91 6.3 5.91c4.33 0 6.78-3.95 7.22-4.65v.12c-.05 2.27.72 3.8 1.87 3.81h5.95V42H233zM76.91 6.46V2.41c0-.18.01-.78.04-1.11-.06.19-.16.47-.24.61l-2.5 4.55h-.74V.64h.72v4.12c0 .16-.04.58-.06.93.07-.25.24-.61.33-.82l2.3-4.24h.85v5.83h-.7z" fill="#fff" clip-path="url(#SVGID_2_)"/><path class="st1" d="M83.26.63v2.45h-2.52V.63h-.7v5.83h.7V3.64h2.52v2.82h.71V.63zm2.35 0v.59h1.58v5.24h.71V1.22h1.61l.07-.59zm5.54 0v5.83h3.33v-.58h-2.61V3.72h2.03v-.6h-2.03V1.23h2.43l.11-.6z"/><defs><path id="SVGID_3_" d="M0 0h235.87v52.61H0z"/></defs><clipPath id="SVGID_4_"><use xlink:href="#SVGID_3_" overflow="visible"/></clipPath><path d="M98.09.63c.57 0 .93.03 1.3.28.69.42.76 1.03.76 1.38 0 .44-.07.99-.54 1.38-.5.45-1.07.46-1.43.46h-1.05v2.32h-.7V.63h1.66zm.06 2.95c.57 0 .78-.15.92-.3.18-.21.3-.44.3-.86 0-.43-.13-.71-.35-.89-.28-.26-.67-.3-1.13-.3h-.75v2.36h1.01z" clip-path="url(#SVGID_4_)" fill="#fff"/><path class="st1" d="M105.21.63v2.45h-2.51V.63h-.72v5.83h.72V3.64h2.51v2.82h.7V.63zm3.12 0v5.83h3.33v-.58h-2.63V3.72h2.05v-.6h-2.05V1.23h2.45l.1-.6zm4.29 0v.59h1.59v5.24h.74V1.22h1.58l.06-.59z"/><defs><path id="SVGID_5_" d="M0 0h235.87v52.61H0z"/></defs><clipPath id="SVGID_6_"><use xlink:href="#SVGID_5_" overflow="visible"/></clipPath><path d="M124.6 5.91h.61v2.11h-.7V6.46h-3.53v1.56h-.67V5.91h.36c.43-.88.64-1.61.71-1.88.24-.9.33-1.73.36-2.51l.02-.89h2.83v5.28zm-2.28-3.94c-.01.29-.11 1.43-.36 2.35-.16.55-.45 1.23-.63 1.59h2.55V1.19h-1.51l-.05.78zm6.04.62c-.12 1.8-.21 3.02-.7 3.53-.25.27-.57.34-.86.37l-.3.04-.13-.5.17-.04c.08-.04.26-.1.36-.13.52-.27.71-1.04.85-3.84l.08-1.39h2.83v5.83h-.69V1.19h-1.53l-.08 1.4zm7.73 3.87V3.82h-.94c-.3 0-.48.12-.59.22-.18.17-.25.47-.28.62l-.15.77c-.04.23-.09.53-.27.73-.13.14-.31.27-.71.32l-.47.06-.13-.5.16-.04c.08-.04.29-.1.36-.13.14-.08.2-.17.28-.43l.25-.96c.06-.26.18-.48.3-.61.12-.11.27-.24.54-.31v-.02c-.3-.03-.57-.15-.74-.3-.32-.26-.48-.64-.48-1.02 0-.43.18-.93.57-1.23.38-.31.84-.36 1.51-.36h1.5v5.83h-.71zm-.82-5.28c-.22 0-.54.03-.82.19-.33.18-.51.46-.51.91s.25.69.41.79c.34.23.7.23.97.23h.75V1.18h-.8zm13.32-.13l-.3.07c-.07.02-.2.07-.26.12-.05.03-.16.12-.23.38l-.24.83c-.04.21-.09.39-.26.58-.1.16-.25.26-.39.33v.01c.1.05.24.11.35.26.14.17.24.4.28.62l.35 1.18c.05.15.07.3.28.43.07.03.26.09.34.13l.18.04-.13.49-.5-.05c-.41-.04-.58-.18-.69-.31-.16-.21-.21-.46-.28-.74l-.17-.95c-.04-.09-.12-.44-.31-.6-.09-.11-.27-.22-.58-.22h-.56v2.82h-.74V3.64h-.56c-.31 0-.48.11-.6.22-.17.16-.27.52-.28.6l-.2.95c-.04.27-.09.53-.25.74-.1.14-.29.27-.71.31l-.48.05-.14-.49.2-.04c.06-.04.25-.1.35-.13.21-.13.22-.29.26-.43l.34-1.18c.07-.22.15-.44.3-.62.11-.15.24-.21.35-.26-.16-.07-.28-.17-.41-.33-.15-.19-.19-.37-.25-.58l-.24-.83c-.06-.26-.17-.35-.23-.38-.04-.06-.17-.1-.27-.12l-.28-.07.15-.48.38.04c.16.01.43.05.64.24.16.16.24.42.28.6l.18.84c.01.12.07.43.27.59.06.07.24.21.57.21h.65V.63h.74v2.46h.63c.35 0 .52-.13.57-.21.19-.16.26-.47.29-.59l.17-.84c.03-.18.13-.45.27-.6.21-.19.48-.23.65-.24l.37-.04.15.48z" clip-path="url(#SVGID_6_)" fill="#fff"/><path class="st1" d="M150.56.63v5.83h3.34v-.58h-2.62V3.72h2.05v-.6h-2.05V1.23h2.44l.1-.6zm8.49 0v2.45h-2.48V.63h-.72v5.83h.72V3.64h2.48v2.82h.73V.63zm8.16 0v5.3h-1.81V.63h-.7v5.3h-1.81V.63h-.7v5.83h5.64v1.56h.68V5.93h-.61V.63z"/><defs><path id="SVGID_7_" d="M0 0h235.87v52.61H0z"/></defs><clipPath id="SVGID_8_"><use xlink:href="#SVGID_7_" overflow="visible"/></clipPath><path d="M173.93 6.46V2.41c0-.18.01-.78.03-1.11-.05.19-.15.47-.23.61l-2.49 4.55h-.75V.64h.72v4.12c0 .16-.02.58-.07.93.07-.25.24-.61.34-.82l2.3-4.24h.86v5.83h-.71z" clip-path="url(#SVGID_8_)" fill="#fff"/><path class="st1" d="M180.27.63v2.45h-2.5V.63h-.72v5.83h.72V3.64h2.5v2.82h.7V.63z"/></svg>