<svg xmlns="http://www.w3.org/2000/svg" viewBox="0 0 20.17 34.84"><g data-name="Слой 2"><path d="M10 12.61c-4.89.06-5.25-7-.39-7.31 5.12-.36 5.18 7.25.39 7.31m8.74-2.45a8.93 8.93 0 0 0-7.38-10A8.94 8.94 0 0 0 .93 7.43C-.86 19.27 17 22.05 18.72 10.16m1.08 9.13c-2.39-4.27-5.52 3-13.6.42-2.13-.69-3.34-2.12-5.15-.82A2.66 2.66 0 0 0 1 23.1a17.06 17.06 0 0 0 5.45 2.15c-1.5 2.32-7.68 6.26-4.53 9 2.62 2.24 5.22-1.81 8.42-5.18 1.22 1 2.63 2.37 3.8 3.49 1.36 1.32 3.23 3 5 1.17 2.53-2.57-1.74-5.38-5.07-8.57.83-.57 7.77-2.17 5.73-5.82" fill="#92ccf2" data-name="Слой 1"/></g></svg>