<svg xmlns="http://www.w3.org/2000/svg" xmlns:xlink="http://www.w3.org/1999/xlink" viewBox="0 0 135 33.38"><defs><path id="a" d="M0 0h135v33.38H0z"/></defs><clipPath id="b"><use xlink:href="#a" overflow="visible"/></clipPath><path d="M107.36 33.17c-1.9 0-2.55-.34-2.55-1.81v-.75l2.29-.4v1.29h6c.86 0 1.08-.16 1.08-.82v-.69c0-.66-.22-.84-1.08-.84h-3.75v-1.51h3.34c.86 0 1.06-.18 1.06-.84v-.47c0-.66-.19-.84-1.06-.84h-5.5v1.15l-2.2-.34v-.58c0-1.47.65-1.81 2.55-1.81h6.02c1.9 0 2.55.34 2.55 1.81v.85c0 1.09-.56 1.54-2.16 1.75 1.76.15 2.59.72 2.59 1.89v.97c0 1.43-.56 1.99-2.7 1.99h-6.48zm9.77-4.68h2.86v-1.06h-2.86v1.06zm6.69 2.94h3.34c3.28 0 4.92-.68 4.92-2.98 0-1.88-1.23-2.89-3.67-2.89h-4.6v5.87zm-2.59-7.52h7.16c4.16 0 6.37 1.71 6.37 4.58 0 1.74-.91 3.17-2.46 3.96-1.08.56-2.59.72-4.57.72h-6.49v-9.26zm-119 6.5h2.12l-1.1-2.46-1.02 2.46zm4.42 2.88h-1l-.91-2H1.86l-.86 2H0l2.92-6.83h.69l3.04 6.83zm10.64-6.79h-.92v5.25l-4.61-5.25h-.78v6.79h.92v-5.23l4.55 5.23h.84V26.5zm6.08.87v5.04h1.55c2.21 0 2.72-1.68 2.72-2.52 0-1.36-.87-2.52-2.77-2.52h-1.5zm-.98-.87h2.64c2.52 0 3.62 1.79 3.62 3.39 0 1.75-1.36 3.4-3.61 3.4h-2.65V26.5zm16.42.87v5.04h1.56c2.22 0 2.72-1.68 2.72-2.52 0-1.36-.87-2.52-2.77-2.52h-1.51zm-.98-.87h2.64c2.51 0 3.62 1.79 3.62 3.39 0 1.75-1.37 3.4-3.61 3.4h-2.65V26.5zm11.07 6.79h.98V26.5h-.98v6.79zm12.04-3.35h-2.28v.88h1.31v1.39c-.47.15-.95.27-1.48.27-1.62 0-2.75-1.07-2.75-2.58 0-1.47 1.15-2.6 2.62-2.6.82 0 1.65.23 2.44.67v-.98c-1.07-.45-1.63-.58-2.42-.58-2.08 0-3.65 1.52-3.65 3.52 0 1.99 1.54 3.45 3.62 3.45.95 0 1.69-.16 2.59-.56v-2.88zm5.02 3.35h.98V26.5h-.98v6.79zm11.18-6.79h-5.69v.87h2.35v5.92h.98v-5.92h2.36v-.87zm6 3.91h2.12l-1.1-2.46-1.02 2.46zm4.42 2.88h-1l-.91-2h-2.89l-.86 2h-1l2.92-6.83h.69l3.05 6.83zm5.31-6.79h-.98v6.79h4.05v-.88h-3.07V26.5zm-35-8.83V5.86h-3.3V20.6h13.38v-2.93H57.87zM35.46 20.6h10.21l-1.58-2.85h-3.67l3.6-6.5 5.19 9.35h3.36L44.01 5.18 35.46 20.6zM18.4 8.8h14.97V5.86H18.4V8.8zm0 3.01v8.79h14.97v-2.93H21.52v-3.01h11.85v-2.85H18.4zm-3.04-1.55a4.4 4.4 0 0 0-4.17-4.39L.15 5.86v2.86h10.82c.85 0 1.54.69 1.54 1.54 0 .83-.65 1.5-1.46 1.55H.15v8.79h3.12v-5.94H8.5l4.14 5.94h3.57l-4.23-6.07c1.98-.46 3.38-2.2 3.38-4.27m67.13-4.41h-7.95v2.94h7.79c2.92 0 4.53 1.58 4.53 4.45 0 2.88-1.57 4.42-4.53 4.42h-4.66V11.8h-3.13v8.79h7.95c4.63 0 7.74-2.95 7.74-7.35.01-4.42-3.1-7.39-7.74-7.39m29.96.02l-11.05-.01v2.86h10.82c.86 0 1.54.69 1.54 1.54 0 .83-.65 1.5-1.46 1.54l-6.36.01v2.85h6.28c.86 0 1.54.7 1.54 1.54 0 .83-.65 1.5-1.46 1.55h-10.9v2.85h8.35l3.49-.12a4.374 4.374 0 0 0 3.37-4.28c0-1.14-.44-2.18-1.15-2.96.72-.79 1.15-1.83 1.15-2.98.01-2.35-1.85-4.27-4.16-4.39m14.81-.02h-7.95v2.94h7.79c2.92 0 4.53 1.58 4.53 4.45 0 2.88-1.57 4.42-4.53 4.42h-4.66V11.8h-3.12v8.79h7.95c4.63 0 7.74-2.95 7.74-7.35-.01-4.42-3.12-7.39-7.75-7.39m-19.9 27.32h6.47c2.14 0 2.7-.56 2.7-1.99v-.97c0-1.17-.82-1.74-2.59-1.89 1.59-.21 2.16-.66 2.16-1.75v-.85c0-1.47-.65-1.81-2.55-1.81h-6.02c-1.9 0-2.55.34-2.55 1.81v.58l2.2.34v-1.15h5.5c.86 0 1.06.18 1.06.84v.47c0 .66-.19.84-1.06.84h-3.34v1.51h3.75c.86 0 1.08.18 1.08.84v.69c0 .66-.22.82-1.08.82h-6v-1.29l-2.29.4v.75c.02 1.47.67 1.81 2.56 1.81m9.77-4.68h2.86v-1.06h-2.86v1.06zm6.69 2.94h3.34c3.28 0 4.92-.68 4.92-2.98 0-1.88-1.23-2.89-3.67-2.89h-4.6v5.87zm-2.59-7.52h7.16c4.16 0 6.37 1.71 6.37 4.58 0 1.74-.91 3.17-2.46 3.96-1.08.56-2.59.72-4.57.72h-6.49v-9.26zm-119 6.5h2.12l-1.1-2.46-1.02 2.46zm4.42 2.88h-1l-.91-2H1.86l-.86 2H0l2.92-6.83h.69l3.04 6.83zm10.64-6.79h-.92v5.25l-4.61-5.25h-.78v6.79h.92v-5.23l4.55 5.23h.84V26.5zm6.08.87v5.04h1.55c2.21 0 2.72-1.68 2.72-2.52 0-1.36-.87-2.52-2.77-2.52h-1.5zm-.98-.87h2.64c2.52 0 3.62 1.79 3.62 3.39 0 1.75-1.36 3.4-3.61 3.4h-2.65V26.5zm16.42.87v5.04h1.56c2.22 0 2.72-1.68 2.72-2.52 0-1.36-.87-2.52-2.77-2.52h-1.51zm-.98-.87h2.64c2.51 0 3.62 1.79 3.62 3.39 0 1.75-1.37 3.4-3.61 3.4h-2.65V26.5zm11.07 6.79h.98V26.5h-.98v6.79zM6.87 0h-.56v3.2L3.51 0h-.48v4.13h.56V.95l2.77 3.18h.51V0zM.15 4.13h.6V0h-.6v4.13zm60.79 25.81h-2.28v.88h1.31v1.39c-.47.15-.95.27-1.48.27-1.62 0-2.75-1.07-2.75-2.58 0-1.47 1.15-2.6 2.62-2.6.82 0 1.65.23 2.44.67v-.98c-1.07-.45-1.63-.58-2.42-.58-2.08 0-3.65 1.52-3.65 3.52 0 1.99 1.54 3.45 3.62 3.45.95 0 1.69-.16 2.59-.56v-2.88zm5.02 3.35h.98V26.5h-.98v6.79zm11.18-6.79h-5.69v.87h2.35v5.92h.98v-5.92h2.36v-.87zm6 3.91h2.12l-1.1-2.46-1.02 2.46zm4.42 2.88h-1l-.91-2h-2.89l-.86 2h-1l2.92-6.83h.69l3.05 6.83zm5.31-6.79h-.98v6.79h4.05v-.88h-3.07V26.5zm14.49 6.67h6.47c2.14 0 2.7-.56 2.7-1.99v-.97c0-1.17-.82-1.74-2.59-1.89 1.59-.21 2.16-.66 2.16-1.75v-.85c0-1.47-.65-1.81-2.55-1.81h-6.02c-1.9 0-2.55.34-2.55 1.81v.58l2.2.34v-1.15h5.5c.86 0 1.06.18 1.06.84v.47c0 .66-.19.84-1.06.84h-3.34v1.51h3.75c.86 0 1.08.18 1.08.84v.69c0 .66-.22.82-1.08.82h-6v-1.29l-2.29.4v.75c.02 1.47.67 1.81 2.56 1.81m9.77-4.68h2.86v-1.06h-2.86v1.06zm6.69 2.94h3.34c3.28 0 4.92-.68 4.92-2.98 0-1.88-1.23-2.89-3.67-2.89h-4.6v5.87zm-2.59-7.52h7.16c4.16 0 6.37 1.71 6.37 4.58 0 1.74-.91 3.17-2.46 3.96-1.08.56-2.59.72-4.57.72h-6.49v-9.26zm-119 6.5h2.12l-1.1-2.46-1.02 2.46zm4.42 2.88h-1l-.91-2H1.86l-.86 2H0l2.92-6.83h.69l3.04 6.83zm10.64-6.79h-.92v5.25l-4.61-5.25h-.78v6.79h.92v-5.23l4.55 5.23h.84V26.5zm6.08.87v5.04h1.55c2.21 0 2.72-1.68 2.72-2.52 0-1.36-.87-2.52-2.77-2.52h-1.5zm-.98-.87h2.64c2.52 0 3.62 1.79 3.62 3.39 0 1.75-1.36 3.4-3.61 3.4h-2.65V26.5zm16.42.87v5.04h1.56c2.22 0 2.72-1.68 2.72-2.52 0-1.36-.87-2.52-2.77-2.52h-1.51zm-.98-.87h2.64c2.51 0 3.62 1.79 3.62 3.39 0 1.75-1.37 3.4-3.61 3.4h-2.65V26.5zm11.07 6.79h.98V26.5h-.98v6.79zm12.04-3.35h-2.28v.88h1.31v1.39c-.47.15-.95.27-1.48.27-1.62 0-2.75-1.07-2.75-2.58 0-1.47 1.15-2.6 2.62-2.6.82 0 1.65.23 2.44.67v-.98c-1.07-.45-1.63-.58-2.42-.58-2.08 0-3.65 1.52-3.65 3.52 0 1.99 1.54 3.45 3.62 3.45.95 0 1.69-.16 2.59-.56v-2.88zm5.02 3.35h.98V26.5h-.98v6.79zm11.18-6.79h-5.69v.87h2.35v5.92h.98v-5.92h2.36v-.87zm6 3.91h2.12l-1.1-2.46-1.02 2.46zm4.42 2.88h-1l-.91-2h-2.89l-.86 2h-1l2.92-6.83h.69l3.05 6.83zm5.31-6.79h-.98v6.79h4.05v-.88h-3.07V26.5zm-35-8.83V5.86h-3.3V20.6h13.38v-2.93H57.87zM35.46 20.6h10.21l-1.58-2.85h-3.67l3.6-6.5 5.19 9.35h3.36L44.01 5.18 35.46 20.6zM18.4 8.8h14.97V5.86H18.4V8.8zm0 3.01v8.79h14.97v-2.93H21.52v-3.01h11.85v-2.85H18.4zm-3.04-1.55a4.4 4.4 0 0 0-4.17-4.39L.15 5.86v2.86h10.82c.85 0 1.54.69 1.54 1.54 0 .83-.65 1.5-1.46 1.55H.15v8.79h3.12v-5.94H8.5l4.14 5.94h3.57l-4.23-6.07c1.98-.46 3.38-2.2 3.38-4.27m67.13-4.41h-7.95v2.94h7.79c2.92 0 4.53 1.58 4.53 4.45 0 2.88-1.57 4.42-4.53 4.42h-4.66V11.8h-3.13v8.79h7.95c4.63 0 7.74-2.95 7.74-7.35.01-4.42-3.1-7.39-7.74-7.39m29.96.02l-11.05-.01v2.86h10.82c.86 0 1.54.69 1.54 1.54 0 .83-.65 1.5-1.46 1.54l-6.36.01v2.85h6.28c.86 0 1.54.7 1.54 1.54 0 .83-.65 1.5-1.46 1.55h-10.9v2.85h8.35l3.49-.12a4.374 4.374 0 0 0 3.37-4.28c0-1.14-.44-2.18-1.15-2.96.72-.79 1.15-1.83 1.15-2.98.01-2.35-1.85-4.27-4.16-4.39m14.81-.02h-7.95v2.94h7.79c2.92 0 4.53 1.58 4.53 4.45 0 2.88-1.57 4.42-4.53 4.42h-4.66V11.8h-3.12v8.79h7.95c4.63 0 7.74-2.95 7.74-7.35-.01-4.42-3.12-7.39-7.75-7.39m-19.9 27.32h6.47c2.14 0 2.7-.56 2.7-1.99v-.97c0-1.17-.82-1.74-2.59-1.89 1.59-.21 2.16-.66 2.16-1.75v-.85c0-1.47-.65-1.81-2.55-1.81h-6.02c-1.9 0-2.55.34-2.55 1.81v.58l2.2.34v-1.15h5.5c.86 0 1.06.18 1.06.84v.47c0 .66-.19.84-1.06.84h-3.34v1.51h3.75c.86 0 1.08.18 1.08.84v.69c0 .66-.22.82-1.08.82h-6v-1.29l-2.29.4v.75c.02 1.47.67 1.81 2.56 1.81m9.77-4.68h2.86v-1.06h-2.86v1.06zm6.69 2.94h3.34c3.28 0 4.92-.68 4.92-2.98 0-1.88-1.23-2.89-3.67-2.89h-4.6v5.87zm-2.59-7.52h7.16c4.16 0 6.37 1.71 6.37 4.58 0 1.74-.91 3.17-2.46 3.96-1.08.56-2.59.72-4.57.72h-6.49v-9.26zm-119 6.5h2.12l-1.1-2.46-1.02 2.46zm4.42 2.88h-1l-.91-2H1.86l-.86 2H0l2.92-6.83h.69l3.04 6.83zm10.64-6.79h-.92v5.25l-4.61-5.25h-.78v6.79h.92v-5.23l4.55 5.23h.84V26.5zm6.08.87v5.04h1.55c2.21 0 2.72-1.68 2.72-2.52 0-1.36-.87-2.52-2.77-2.52h-1.5zm-.98-.87h2.64c2.52 0 3.62 1.79 3.62 3.39 0 1.75-1.36 3.4-3.61 3.4h-2.65V26.5zm16.42.87v5.04h1.56c2.22 0 2.72-1.68 2.72-2.52 0-1.36-.87-2.52-2.77-2.52h-1.51zm-.98-.87h2.64c2.51 0 3.62 1.79 3.62 3.39 0 1.75-1.37 3.4-3.61 3.4h-2.65V26.5zm11.07 6.79h.98V26.5h-.98v6.79zM6.87 0h-.56v3.2L3.51 0h-.48v4.13h.56V.95l2.77 3.18h.51V0zM.15 4.13h.6V0h-.6v4.13zm60.79 25.81h-2.28v.88h1.31v1.39c-.47.15-.95.27-1.48.27-1.62 0-2.75-1.07-2.75-2.58 0-1.47 1.15-2.6 2.62-2.6.82 0 1.65.23 2.44.67v-.98c-1.07-.45-1.63-.58-2.42-.58-2.08 0-3.65 1.52-3.65 3.52 0 1.99 1.54 3.45 3.62 3.45.95 0 1.69-.16 2.59-.56v-2.88zm5.02 3.35h.98V26.5h-.98v6.79zm11.18-6.79h-5.69v.87h2.35v5.92h.98v-5.92h2.36v-.87zm6 3.91h2.12l-1.1-2.46-1.02 2.46zm4.42 2.88h-1l-.91-2h-2.89l-.86 2h-1l2.92-6.83h.69l3.05 6.83zm5.31-6.79h-.98v6.79h4.05v-.88h-3.07V26.5z" clip-path="url(#b)" fill="#e6e7e7"/><path d="M107.36 33.17c-1.9 0-2.55-.34-2.55-1.81v-.75l2.29-.4v1.29h6c.86 0 1.08-.16 1.08-.82v-.69c0-.66-.22-.84-1.08-.84h-3.75v-1.51h3.34c.86 0 1.06-.18 1.06-.84v-.47c0-.66-.19-.84-1.06-.84h-5.5v1.15l-2.2-.34v-.58c0-1.47.65-1.81 2.55-1.81h6.02c1.9 0 2.55.34 2.55 1.81v.85c0 1.09-.56 1.54-2.16 1.75 1.76.15 2.59.72 2.59 1.89v.97c0 1.43-.56 1.99-2.7 1.99h-6.48zm9.77-4.68h2.86v-1.06h-2.86v1.06zm6.69 2.94h3.34c3.28 0 4.92-.68 4.92-2.98 0-1.88-1.23-2.89-3.67-2.89h-4.6v5.87zm-2.59-7.52h7.16c4.16 0 6.37 1.71 6.37 4.58 0 1.74-.91 3.17-2.46 3.96-1.08.56-2.59.72-4.57.72h-6.49v-9.26zm-119 6.5h2.12l-1.1-2.46-1.02 2.46zm4.42 2.88h-1l-.91-2H1.86l-.86 2H0l2.92-6.83h.69l3.04 6.83zm10.64-6.79h-.92v5.25l-4.61-5.25h-.78v6.79h.92v-5.23l4.55 5.23h.84V26.5zm6.08.87v5.04h1.55c2.21 0 2.72-1.68 2.72-2.52 0-1.36-.87-2.52-2.77-2.52h-1.5zm-.98-.87h2.64c2.52 0 3.62 1.79 3.62 3.39 0 1.75-1.36 3.4-3.61 3.4h-2.65V26.5zm16.42.87v5.04h1.56c2.22 0 2.72-1.68 2.72-2.52 0-1.36-.87-2.52-2.77-2.52h-1.51zm-.98-.87h2.64c2.51 0 3.62 1.79 3.62 3.39 0 1.75-1.37 3.4-3.61 3.4h-2.65V26.5zm11.07 6.79h.98V26.5h-.98v6.79zm12.04-3.35h-2.28v.88h1.31v1.39c-.47.15-.95.27-1.48.27-1.62 0-2.75-1.07-2.75-2.58 0-1.47 1.15-2.6 2.62-2.6.82 0 1.65.23 2.44.67v-.98c-1.07-.45-1.63-.58-2.42-.58-2.08 0-3.65 1.52-3.65 3.52 0 1.99 1.54 3.45 3.62 3.45.95 0 1.69-.16 2.59-.56v-2.88zm5.02 3.35h.98V26.5h-.98v6.79zm11.18-6.79h-5.69v.87h2.35v5.92h.98v-5.92h2.36v-.87zm6 3.91h2.12l-1.1-2.46-1.02 2.46zm4.42 2.88h-1l-.91-2h-2.89l-.86 2h-1l2.92-6.83h.69l3.05 6.83zm5.31-6.79h-.98v6.79h4.05v-.88h-3.07V26.5zm-35-8.83V5.86h-3.3V20.6h13.38v-2.93H57.87zM35.46 20.6h10.21l-1.58-2.85h-3.67l3.6-6.5 5.19 9.35h3.36L44.01 5.18 35.46 20.6zM18.4 8.8h14.97V5.86H18.4V8.8zm0 3.01v8.79h14.97v-2.93H21.52v-3.01h11.85v-2.85H18.4zm-3.04-1.55a4.4 4.4 0 0 0-4.17-4.39L.15 5.86v2.86h10.82c.85 0 1.54.69 1.54 1.54 0 .83-.65 1.5-1.46 1.55H.15v8.79h3.12v-5.94H8.5l4.14 5.94h3.57l-4.23-6.07c1.98-.46 3.38-2.2 3.38-4.27m67.13-4.41h-7.95v2.94h7.79c2.92 0 4.53 1.58 4.53 4.45 0 2.88-1.57 4.42-4.53 4.42h-4.66V11.8h-3.13v8.79h7.95c4.63 0 7.74-2.95 7.74-7.35.01-4.42-3.1-7.39-7.74-7.39m29.96.02l-11.05-.01v2.86h10.82c.86 0 1.54.69 1.54 1.54 0 .83-.65 1.5-1.46 1.54l-6.36.01v2.85h6.28c.86 0 1.54.7 1.54 1.54 0 .83-.65 1.5-1.46 1.55h-10.9v2.85h8.35l3.49-.12a4.374 4.374 0 0 0 3.37-4.28c0-1.14-.44-2.18-1.15-2.96.72-.79 1.15-1.83 1.15-2.98.01-2.35-1.85-4.27-4.16-4.39m14.81-.02h-7.95v2.94h7.79c2.92 0 4.53 1.58 4.53 4.45 0 2.88-1.57 4.42-4.53 4.42h-4.66V11.8h-3.12v8.79h7.95c4.63 0 7.74-2.95 7.74-7.35-.01-4.42-3.12-7.39-7.75-7.39m-19.9 27.32h6.47c2.14 0 2.7-.56 2.7-1.99v-.97c0-1.17-.82-1.74-2.59-1.89 1.59-.21 2.16-.66 2.16-1.75v-.85c0-1.47-.65-1.81-2.55-1.81h-6.02c-1.9 0-2.55.34-2.55 1.81v.58l2.2.34v-1.15h5.5c.86 0 1.06.18 1.06.84v.47c0 .66-.19.84-1.06.84h-3.34v1.51h3.75c.86 0 1.08.18 1.08.84v.69c0 .66-.22.82-1.08.82h-6v-1.29l-2.29.4v.75c.02 1.47.67 1.81 2.56 1.81m9.77-4.68h2.86v-1.06h-2.86v1.06zm6.69 2.94h3.34c3.28 0 4.92-.68 4.92-2.98 0-1.88-1.23-2.89-3.67-2.89h-4.6v5.87zm-2.59-7.52h7.16c4.16 0 6.37 1.71 6.37 4.58 0 1.74-.91 3.17-2.46 3.96-1.08.56-2.59.72-4.57.72h-6.49v-9.26zm-119 6.5h2.12l-1.1-2.46-1.02 2.46zm4.42 2.88h-1l-.91-2H1.86l-.86 2H0l2.92-6.83h.69l3.04 6.83zm10.64-6.79h-.92v5.25l-4.61-5.25h-.78v6.79h.92v-5.23l4.55 5.23h.84V26.5zm6.08.87v5.04h1.55c2.21 0 2.72-1.68 2.72-2.52 0-1.36-.87-2.52-2.77-2.52h-1.5zm-.98-.87h2.64c2.52 0 3.62 1.79 3.62 3.39 0 1.75-1.36 3.4-3.61 3.4h-2.65V26.5zm16.42.87v5.04h1.56c2.22 0 2.72-1.68 2.72-2.52 0-1.36-.87-2.52-2.77-2.52h-1.51zm-.98-.87h2.64c2.51 0 3.62 1.79 3.62 3.39 0 1.75-1.37 3.4-3.61 3.4h-2.65V26.5zm11.07 6.79h.98V26.5h-.98v6.79zM6.87 0h-.56v3.2L3.51 0h-.48v4.13h.56V.95l2.77 3.18h.51V0zM.15 4.13h.6V0h-.6v4.13zm60.79 25.81h-2.28v.88h1.31v1.39c-.47.15-.95.27-1.48.27-1.62 0-2.75-1.07-2.75-2.58 0-1.47 1.15-2.6 2.62-2.6.82 0 1.65.23 2.44.67v-.98c-1.07-.45-1.63-.58-2.42-.58-2.08 0-3.65 1.52-3.65 3.52 0 1.99 1.54 3.45 3.62 3.45.95 0 1.69-.16 2.59-.56v-2.88zm5.02 3.35h.98V26.5h-.98v6.79zm11.18-6.79h-5.69v.87h2.35v5.92h.98v-5.92h2.36v-.87zm6 3.91h2.12l-1.1-2.46-1.02 2.46zm4.42 2.88h-1l-.91-2h-2.89l-.86 2h-1l2.92-6.83h.69l3.05 6.83zm5.31-6.79h-.98v6.79h4.05v-.88h-3.07V26.5zm14.49 6.67h6.47c2.14 0 2.7-.56 2.7-1.99v-.97c0-1.17-.82-1.74-2.59-1.89 1.59-.21 2.16-.66 2.16-1.75v-.85c0-1.47-.65-1.81-2.55-1.81h-6.02c-1.9 0-2.55.34-2.55 1.81v.58l2.2.34v-1.15h5.5c.86 0 1.06.18 1.06.84v.47c0 .66-.19.84-1.06.84h-3.34v1.51h3.75c.86 0 1.08.18 1.08.84v.69c0 .66-.22.82-1.08.82h-6v-1.29l-2.29.4v.75c.02 1.47.67 1.81 2.56 1.81m9.77-4.68h2.86v-1.06h-2.86v1.06zm6.69 2.94h3.34c3.28 0 4.92-.68 4.92-2.98 0-1.88-1.23-2.89-3.67-2.89h-4.6v5.87zm-2.59-7.52h7.16c4.16 0 6.37 1.71 6.37 4.58 0 1.74-.91 3.17-2.46 3.96-1.08.56-2.59.72-4.57.72h-6.49v-9.26zm-119 6.5h2.12l-1.1-2.46-1.02 2.46zm4.42 2.88h-1l-.91-2H1.86l-.86 2H0l2.92-6.83h.69l3.04 6.83zm10.64-6.79h-.92v5.25l-4.61-5.25h-.78v6.79h.92v-5.23l4.55 5.23h.84V26.5zm6.08.87v5.04h1.55c2.21 0 2.72-1.68 2.72-2.52 0-1.36-.87-2.52-2.77-2.52h-1.5zm-.98-.87h2.64c2.52 0 3.62 1.79 3.62 3.39 0 1.75-1.36 3.4-3.61 3.4h-2.65V26.5zm16.42.87v5.04h1.56c2.22 0 2.72-1.68 2.72-2.52 0-1.36-.87-2.52-2.77-2.52h-1.51zm-.98-.87h2.64c2.51 0 3.62 1.79 3.62 3.39 0 1.75-1.37 3.4-3.61 3.4h-2.65V26.5zm11.07 6.79h.98V26.5h-.98v6.79zm12.04-3.35h-2.28v.88h1.31v1.39c-.47.15-.95.27-1.48.27-1.62 0-2.75-1.07-2.75-2.58 0-1.47 1.15-2.6 2.62-2.6.82 0 1.65.23 2.44.67v-.98c-1.07-.45-1.63-.58-2.42-.58-2.08 0-3.65 1.52-3.65 3.52 0 1.99 1.54 3.45 3.62 3.45.95 0 1.69-.16 2.59-.56v-2.88zm5.02 3.35h.98V26.5h-.98v6.79zm11.18-6.79h-5.69v.87h2.35v5.92h.98v-5.92h2.36v-.87zm6 3.91h2.12l-1.1-2.46-1.02 2.46zm4.42 2.88h-1l-.91-2h-2.89l-.86 2h-1l2.92-6.83h.69l3.05 6.83zm5.31-6.79h-.98v6.79h4.05v-.88h-3.07V26.5zm-35-8.83V5.86h-3.3V20.6h13.38v-2.93H57.87zM35.46 20.6h10.21l-1.58-2.85h-3.67l3.6-6.5 5.19 9.35h3.36L44.01 5.18 35.46 20.6zM18.4 8.8h14.97V5.86H18.4V8.8zm0 3.01v8.79h14.97v-2.93H21.52v-3.01h11.85v-2.85H18.4zm-3.04-1.55a4.4 4.4 0 0 0-4.17-4.39L.15 5.86v2.86h10.82c.85 0 1.54.69 1.54 1.54 0 .83-.65 1.5-1.46 1.55H.15v8.79h3.12v-5.94H8.5l4.14 5.94h3.57l-4.23-6.07c1.98-.46 3.38-2.2 3.38-4.27m67.13-4.41h-7.95v2.94h7.79c2.92 0 4.53 1.58 4.53 4.45 0 2.88-1.57 4.42-4.53 4.42h-4.66V11.8h-3.13v8.79h7.95c4.63 0 7.74-2.95 7.74-7.35.01-4.42-3.1-7.39-7.74-7.39m29.96.02l-11.05-.01v2.86h10.82c.86 0 1.54.69 1.54 1.54 0 .83-.65 1.5-1.46 1.54l-6.36.01v2.85h6.28c.86 0 1.54.7 1.54 1.54 0 .83-.65 1.5-1.46 1.55h-10.9v2.85h8.35l3.49-.12a4.374 4.374 0 0 0 3.37-4.28c0-1.14-.44-2.18-1.15-2.96.72-.79 1.15-1.83 1.15-2.98.01-2.35-1.85-4.27-4.16-4.39m14.81-.02h-7.95v2.94h7.79c2.92 0 4.53 1.58 4.53 4.45 0 2.88-1.57 4.42-4.53 4.42h-4.66V11.8h-3.12v8.79h7.95c4.63 0 7.74-2.95 7.74-7.35-.01-4.42-3.12-7.39-7.75-7.39m-19.9 27.32h6.47c2.14 0 2.7-.56 2.7-1.99v-.97c0-1.17-.82-1.74-2.59-1.89 1.59-.21 2.16-.66 2.16-1.75v-.85c0-1.47-.65-1.81-2.55-1.81h-6.02c-1.9 0-2.55.34-2.55 1.81v.58l2.2.34v-1.15h5.5c.86 0 1.06.18 1.06.84v.47c0 .66-.19.84-1.06.84h-3.34v1.51h3.75c.86 0 1.08.18 1.08.84v.69c0 .66-.22.82-1.08.82h-6v-1.29l-2.29.4v.75c.02 1.47.67 1.81 2.56 1.81m9.77-4.68h2.86v-1.06h-2.86v1.06zm6.69 2.94h3.34c3.28 0 4.92-.68 4.92-2.98 0-1.88-1.23-2.89-3.67-2.89h-4.6v5.87zm-2.59-7.52h7.16c4.16 0 6.37 1.71 6.37 4.58 0 1.74-.91 3.17-2.46 3.96-1.08.56-2.59.72-4.57.72h-6.49v-9.26zm-119 6.5h2.12l-1.1-2.46-1.02 2.46zm4.42 2.88h-1l-.91-2H1.86l-.86 2H0l2.92-6.83h.69l3.04 6.83zm10.64-6.79h-.92v5.25l-4.61-5.25h-.78v6.79h.92v-5.23l4.55 5.23h.84V26.5zm6.08.87v5.04h1.55c2.21 0 2.72-1.68 2.72-2.52 0-1.36-.87-2.52-2.77-2.52h-1.5zm-.98-.87h2.64c2.52 0 3.62 1.79 3.62 3.39 0 1.75-1.36 3.4-3.61 3.4h-2.65V26.5zm16.42.87v5.04h1.56c2.22 0 2.72-1.68 2.72-2.52 0-1.36-.87-2.52-2.77-2.52h-1.51zm-.98-.87h2.64c2.51 0 3.62 1.79 3.62 3.39 0 1.75-1.37 3.4-3.61 3.4h-2.65V26.5zm11.07 6.79h.98V26.5h-.98v6.79zM6.87 0h-.56v3.2L3.51 0h-.48v4.13h.56V.95l2.77 3.18h.51V0zM.15 4.13h.6V0h-.6v4.13zm60.79 25.81h-2.28v.88h1.31v1.39c-.47.15-.95.27-1.48.27-1.62 0-2.75-1.07-2.75-2.58 0-1.47 1.15-2.6 2.62-2.6.82 0 1.65.23 2.44.67v-.98c-1.07-.45-1.63-.58-2.42-.58-2.08 0-3.65 1.52-3.65 3.52 0 1.99 1.54 3.45 3.62 3.45.95 0 1.69-.16 2.59-.56v-2.88zm5.02 3.35h.98V26.5h-.98v6.79zm11.18-6.79h-5.69v.87h2.35v5.92h.98v-5.92h2.36v-.87zm6 3.91h2.12l-1.1-2.46-1.02 2.46zm4.42 2.88h-1l-.91-2h-2.89l-.86 2h-1l2.92-6.83h.69l3.05 6.83zm5.31-6.79h-.98v6.79h4.05v-.88h-3.07V26.5z" clip-path="url(#b)" fill="#93c7e8"/></svg>