<svg xmlns="http://www.w3.org/2000/svg" viewBox="0 0 40.06 27.66"><g data-name="Слой 2"><path d="M35 15.46c.11-.1 0 0 .11-.17l.21-.74a7.74 7.74 0 0 0 2.85-.49l1.9-1.3a11.7 11.7 0 0 1-2.31 0l-2.07-.43a1.89 1.89 0 0 1 .67-.15c.25 0 .47-.07.71-.12a6.12 6.12 0 0 0 1.23-.41l1.59-1.55a6.23 6.23 0 0 1-2.36.41c-.48 0-2.21 0-2.37-.45s-.19-1-.58-1.92a10.65 10.65 0 0 0-.92-1.7A9.29 9.29 0 0 0 31 3.81l-4.38-1.22A5.68 5.68 0 0 1 28.29 2C30.24 1.5 30.07.79 29.6.66a7.39 7.39 0 0 0-2.72.58L28.05 0a6.36 6.36 0 0 0-2.93 1.29l.38-.94c-1.16.39-3.23 3.13-3.81 4.23l-2.44 5.35C19 9.85 17.6 8.37 16.5 7.71S14.25 6.52 13.15 6c-2.66-1.22-4.57-2-7.29-3-.13 2.4 1.4 3.71 3.31 5l-2.33.3a4.12 4.12 0 0 0 1.43 2.6 6.5 6.5 0 0 0 2.66 1.31l.2.11a3.84 3.84 0 0 0-2.53 1c0 .64 1.41 2 2.45 2.23l2.33.3a4 4 0 0 1-.6.37 1.71 1.71 0 0 0-.51.45 1.29 1.29 0 0 0-.27 1.4l2.7 1.23a7 7 0 0 1-1.32 1.2 10.61 10.61 0 0 1-5.74 2 11.07 11.07 0 0 1-4.48-.74A11.2 11.2 0 0 1 0 19.84a12.31 12.31 0 0 0 1.51 1.8 20.19 20.19 0 0 0 18.2 5.68 22 22 0 0 0 9.74-4.15 22.31 22.31 0 0 0 1.78-1.58 16 16 0 0 0 2.82-3.79 9 9 0 0 0 .95-2.34" fill="#92ccf2" data-name="Слой 1"/></g></svg>