<svg xmlns="http://www.w3.org/2000/svg" viewBox="0 0 35.81 20.65"><g data-name="Слой 2"><path d="M30.71 13a32.06 32.06 0 0 1 4.6 5 2.1 2.1 0 0 1 .39 1.69 1 1 0 0 1-1 .73l-5.7.22a4.39 4.39 0 0 1-3-1.47 12.63 12.63 0 0 1-2.34-2.6 1.5 1.5 0 0 0-1.26-.7 1 1 0 0 0-1.17.87L21.08 19a1.51 1.51 0 0 1-.52 1 1.71 1.71 0 0 1-.74.39l-1 .13a18.49 18.49 0 0 1-3.94-.22 7.67 7.67 0 0 1-3.08-1.26 16.93 16.93 0 0 1-2.21-1.73C9 16.83 8.24 16 7.2 14.83A74.61 74.61 0 0 1 .87 4.34 9.16 9.16 0 0 1 0 1.39 2.16 2.16 0 0 1 1.3 1c.64 0 1.56-.07 2.78 0h2.17a1.4 1.4 0 0 1 1.38 1 38 38 0 0 0 4.25 7.54c.93.87 1.54.73 1.83-.43a20.41 20.41 0 0 0 .17-4.25 3 3 0 0 0-2.17-3.38C12.06.46 13.27 0 15.35 0c.53 0 1.16 0 1.91.09l1.22.08c1.73 0 2.6.7 2.6 2.08q0 .27-.09 1.26c-.06.67-.1 1.3-.13 1.91s0 1.24 0 1.91A4.92 4.92 0 0 0 21.08 9a1.41 1.41 0 0 0 .69.87l.91-.65a4 4 0 0 0 .92-1c.31-.46.56-.81.73-1a10.69 10.69 0 0 0 .78-1.3 10.55 10.55 0 0 0 .61-1.22c.06-.17.26-.62.61-1.34l.52-1.09L27 2a2.47 2.47 0 0 1 .56-.91A2.86 2.86 0 0 1 28.63 1H34a7 7 0 0 1 1.13 0 1.43 1.43 0 0 1 .52.39c.41.52.05 1.65-1.08 3.38a35.42 35.42 0 0 1-3.25 4.34q-2.17 2.43-.61 3.9" fill="#92ccf2" data-name="Слой 1"/></g></svg>