<svg xmlns="http://www.w3.org/2000/svg" xmlns:xlink="http://www.w3.org/1999/xlink" viewBox="0 0 446.98 29.52"><defs><path id="a" d="M0 0h446.98v29.52H0z"/></defs><clipPath id="b"><use xlink:href="#a" overflow="visible"/></clipPath><path d="M25.87 11.59c.76-1.02 1.15-2.51 1.15-4.45 0-2.44-.6-4.2-1.79-5.28S22.06.25 19.28.25H0v29.03h19.28c2.85 0 4.85-.56 6-1.68 1.15-1.12 1.73-3.05 1.73-5.79 0-2.48-.38-4.34-1.15-5.59-.77-1.24-2.03-2.07-3.79-2.46 1.77-.42 3.04-1.15 3.8-2.17m-10.93 8.96c0 .79-.13 1.34-.38 1.63-.25.3-.7.45-1.35.45h-1.32V17.3h1.32c.64 0 1.08.15 1.34.46.26.31.38.85.38 1.61v1.18zm-.4-10.04c-.26.3-.71.45-1.33.45h-1.32v-4.1h1.32c.64 0 1.08.15 1.34.45.26.3.38.84.38 1.62.01.75-.12 1.28-.39 1.58M71.82.24H59.71l-3.83 11.73V.24H44.2v29.03h11.67V16.01l4.23 13.27h12l-4.86-15.55L71.82.24zm48.26 9.83h-3.04V.24h-11.89v29.03h11.89V16.69h3.04v12.59h11.9V.24h-11.9v9.83zm40.52-8.56c-1.15-.96-3.09-1.44-5.8-1.44h-12.43c-2.52 0-4.35.49-5.51 1.48-1.15.99-1.73 2.56-1.73 4.7v16.27c0 2.54.54 4.33 1.62 5.39 1.08 1.05 2.95 1.58 5.62 1.58h12.43c2.82 0 4.78-.51 5.88-1.55 1.1-1.03 1.65-2.84 1.65-5.42V6.25c.01-2.2-.57-3.78-1.73-4.74m-10.34 19.3c0 .74-.12 1.27-.36 1.59-.24.31-.63.47-1.18.47-.53 0-.91-.16-1.15-.48-.24-.32-.36-.85-.36-1.58V8.71c0-.73.12-1.26.36-1.6s.62-.5 1.15-.5c.53 0 .91.17 1.16.51.25.34.38.87.38 1.59v12.1zM199.01.07h-12.43c-2.66 0-4.54.52-5.62 1.56s-1.62 2.83-1.62 5.37v16.23c0 2.15.58 3.73 1.74 4.74 1.16 1.01 2.99 1.51 5.5 1.51h12.43c2.69 0 4.62-.49 5.78-1.46 1.17-.97 1.75-2.57 1.75-4.79v-5.8h-12.08v3.37c0 .72-.13 1.25-.38 1.59-.25.34-.64.51-1.16.51-.53 0-.91-.17-1.15-.5-.24-.33-.36-.86-.36-1.6V8.7c0-.73.12-1.26.36-1.6.24-.33.62-.5 1.15-.5.55 0 .94.16 1.18.48.24.32.36.86.36 1.61v2.11h12.08V7c0-2.57-.55-4.37-1.64-5.39-1.1-1.03-3.06-1.54-5.89-1.54m114.72 10h-3.04V.24H298.8v29.03h11.89V16.69h3.04v12.59h11.89V.24h-11.89v9.83zm41.03 1.52c.76-1.02 1.15-2.51 1.15-4.45 0-2.44-.6-4.2-1.79-5.28S350.95.25 348.17.25h-19.28v29.03h19.28c2.85 0 4.85-.56 6-1.68 1.15-1.12 1.73-3.05 1.73-5.79 0-2.48-.39-4.34-1.15-5.59-.77-1.24-2.03-2.07-3.79-2.46 1.77-.42 3.04-1.15 3.8-2.17m-10.93 8.96c0 .79-.13 1.34-.38 1.63-.25.3-.7.45-1.35.45h-1.32V17.3h1.32c.64 0 1.08.15 1.34.46.26.31.38.85.38 1.61v1.18zm-.4-10.04c-.26.3-.7.45-1.33.45h-1.32v-4.1h1.32c.64 0 1.08.15 1.34.45.26.3.38.84.38 1.62.01.75-.12 1.28-.39 1.58M363.23.24l-5.37 29.03h12.28l.68-6.28h3.41l.68 6.28h12.32L381.86.24h-18.63zm8.03 16.34l1.28-9.86 1.23 9.86h-2.51zm43.82-14.87C413.91.73 411.99.24 409.3.24h-19.48v29.03h11.89V19.9h7.59c2.81 0 4.77-.52 5.87-1.56 1.11-1.04 1.66-2.86 1.66-5.45v-6.4c0-2.21-.58-3.8-1.75-4.78m-10.14 9.53c0 .76-.13 1.29-.39 1.61-.26.31-.68.47-1.27.47h-1.58V6.79h1.61c.58 0 .99.16 1.24.49.25.33.38.87.38 1.62v2.34z" clip-path="url(#b)"/><path d="M90.12.25l-4.7 11.97V.25H74.57v29.02h11.24l5.2-13.65v13.65h10.86V.25z"/><defs><path id="c" d="M0 0h446.98v29.52H0z"/></defs><clipPath id="d"><use xlink:href="#c" overflow="visible"/></clipPath><path d="M270.13 1.71c1.17-.98 3.09-1.47 5.78-1.47h19.48v29.03H283.5V19.9h-7.59c-2.81 0-4.77-.52-5.87-1.56-1.11-1.04-1.66-2.86-1.66-5.45v-6.4c0-2.21.58-3.8 1.75-4.78m10.14 9.53c0 .76.13 1.29.38 1.61.26.31.68.47 1.27.47h1.58V6.79h-1.61c-.57 0-.99.16-1.24.49-.25.33-.38.87-.38 1.62v2.34z" clip-path="url(#d)"/><path d="M272.75 19.24l-4.37 10.06h11.48l3.96-10.06z"/><defs><path id="e" d="M0 0h446.98v29.52H0z"/></defs><clipPath id="f"><use xlink:href="#e" overflow="visible"/></clipPath><path d="M421.72 1.69c1.17-.98 3.09-1.47 5.78-1.47h19.48v29.03h-11.89v-9.38h-7.59c-2.81 0-4.77-.52-5.87-1.56-1.1-1.04-1.66-2.86-1.66-5.45V6.47c0-2.21.58-3.81 1.75-4.78m10.14 9.53c0 .76.13 1.29.39 1.61.26.31.68.47 1.26.47h1.58V6.77h-1.61c-.57 0-.99.16-1.24.49-.25.33-.38.87-.38 1.62v2.34z" clip-path="url(#f)"/><path d="M424.35 19.22l-4.37 10.05h11.47l3.96-10.05z"/><defs><path id="g" d="M0 0h446.98v29.52H0z"/></defs><clipPath id="h"><use xlink:href="#g" overflow="visible"/></clipPath><path d="M225.85 28.1c1.27.94 3.12 1.41 5.54 1.41h12.3c2.42 0 4.26-.47 5.53-1.41 1.27-.94 1.91-2.3 1.91-4.08V5.5c0-1.79-.63-3.16-1.9-4.09-1.26-.94-3.11-1.4-5.54-1.4h-12.3c-2.54 0-4.42.51-5.63 1.52s-1.81 2.59-1.81 4.73v5.9c0 2.19.67 3.84 2.02 4.97 1.35 1.12 3.32 1.68 5.94 1.68 1.26 0 2.46-.13 3.62-.38 1.15-.26 2.3-.65 3.44-1.19v3.28c0 .88-.1 1.5-.31 1.86-.21.35-.56.53-1.06.53-.46 0-.84-.16-1.12-.49-.28-.33-.42-.76-.42-1.29v-.54h-12.1v3.44c-.01 1.77.62 3.13 1.89 4.07m13.07-18.17c0 .69-.12 1.19-.35 1.5-.23.31-.6.47-1.12.47-.53 0-.9-.15-1.14-.45-.23-.3-.35-.79-.35-1.45V8.5c0-.63.12-1.09.37-1.4.24-.3.62-.45 1.12-.45.5 0 .87.15 1.11.46.24.31.36.77.36 1.39v1.43z" clip-path="url(#h)"/></svg>