<?xml version="1.0" encoding="utf-8"?>
<!-- Generator: Adobe Illustrator 23.0.0, SVG Export Plug-In . SVG Version: 6.00 Build 0)  -->
<svg version="1.1" id="Слой_1" xmlns="http://www.w3.org/2000/svg" xmlns:xlink="http://www.w3.org/1999/xlink" x="0px" y="0px"
	 viewBox="0 0 189.54 19.35" style="enable-background:new 0 0 189.54 19.35;" xml:space="preserve">
<style type="text/css">
	.st0{clip-path:url(#SVGID_2_);}
</style>
<g>
	<defs>
		<rect id="SVGID_1_" y="0" width="189.54" height="19.35"/>
	</defs>
	<clipPath id="SVGID_2_">
		<use xlink:href="#SVGID_1_"  style="overflow:visible;"/>
	</clipPath>
	<path class="st0" d="M184.95,12.29c0,1.34-0.37,2.24-1.1,2.7c-0.57,0.37-1.59,0.55-3.07,0.55h-8.26V4.02h8.26
		c1.4,0,2.41,0.19,3.01,0.58c0.77,0.5,1.16,1.39,1.16,2.67V12.29z M187.96,1.87c-1.05-1.1-2.79-1.65-5.22-1.65h-14.81v19.13h14.84
		c2.47,0,4.23-0.57,5.28-1.71c0.99-1.1,1.49-2.89,1.49-5.37V7.19C189.53,4.75,189.01,2.98,187.96,1.87 M160.84,9.34
		c1.18-0.26,1.97-0.78,2.38-1.57c0.33-0.62,0.5-1.62,0.5-2.98c0-3.2-2.13-4.8-6.38-4.8h-7.71c-1.97,0-3.53,0.5-4.67,1.49
		c-1.2,1.05-1.8,2.53-1.8,4.44h4.31c0-1.54,1.06-2.31,3.18-2.31h5.64c1,0,1.68,0.09,2.04,0.28c0.53,0.28,0.8,0.85,0.8,1.74
		c0,0.9-0.26,1.53-0.77,1.9c-0.43,0.29-1.11,0.44-2.07,0.44h-5.22v3.39h4.14c1.38,0,2.29,0.06,2.74,0.19
		c0.99,0.28,1.49,0.92,1.49,1.93c0,0.92-0.28,1.54-0.83,1.87c-0.41,0.26-1.09,0.38-2.05,0.38h-5.83c-0.98,0-1.67-0.07-2.07-0.22
		c-0.7-0.26-1.05-0.79-1.05-1.6h-4.45c0,3.62,2.16,5.43,6.47,5.43h7.74c2.14,0,3.74-0.39,4.81-1.18c1.24-0.92,1.85-2.41,1.85-4.47
		c0-1.05-0.28-1.97-0.84-2.76C162.61,10.15,161.83,9.62,160.84,9.34 M126.93,16.39c-0.26,0.16-0.79,0.25-1.6,0.25h-6.9v-3.29h7.03
		c0.72,0,1.2,0.08,1.45,0.23c0.35,0.22,0.52,0.68,0.52,1.38C127.43,15.7,127.26,16.17,126.93,16.39 M118.43,7.71h7
		c0.95,0,1.43,0.48,1.43,1.43c0,0.48-0.11,0.88-0.33,1.18c-0.26,0.33-0.62,0.5-1.08,0.5h-7.03V7.71z M128.52,11.78
		c0.75-0.23,1.25-0.63,1.51-1.2c0.18-0.4,0.27-1.06,0.27-1.98c0-1.39-0.5-2.37-1.51-2.94C128.02,5.22,126.87,5,125.35,5h-10.36
		v14.35h11.07c1.6,0,2.78-0.3,3.54-0.89c0.84-0.66,1.26-1.77,1.26-3.33c0-0.95-0.17-1.67-0.51-2.17S129.41,12.07,128.52,11.78
		 M88.59,19.35h14.69v-2.71H92.03v-3.29h10.9v-2.5h-10.9V7.71h11.25V5H88.59V19.35z M85.26,5h-4.87l-5.66,5.35h-1.72V5h-3.44v5.35
		h-1.72L62.19,5h-4.87l7.54,6.72l-7.92,7.63h4.6l6.24-6.14h1.78v6.14h3.44v-6.14h1.78l6.24,6.14h4.6l-7.92-7.63L85.26,5z M54.19,5
		h-5.16l-6.28,5.35h-2.03V5h-3.44v14.35h3.44v-6.14h2.09l6.65,6.14h5.06l-8.81-7.63L54.19,5z M21.78,13.02l2.84-5.33h0.16l2.74,5.33
		H21.78z M22.13,5L14.5,19.35h4.02l1.86-3.62h8.52l1.84,3.62h4.04L27.23,5H22.13z M15.52,5H0v2.85h6.01v11.49h3.44V7.86h6.07V5z"/>
</g>
</svg>
