<?xml version="1.0" encoding="utf-8"?>
<!-- Generator: Adobe Illustrator 23.0.0, SVG Export Plug-In . SVG Version: 6.00 Build 0)  -->
<svg version="1.1" id="Слой_1" xmlns="http://www.w3.org/2000/svg" xmlns:xlink="http://www.w3.org/1999/xlink" x="0px" y="0px"
	 viewBox="0 0 26.89 49.39" style="enable-background:new 0 0 26.89 49.39;" xml:space="preserve">
<style type="text/css">
	.st0{clip-path:url(#SVGID_2_);fill:#92CCF2;}
</style>
<g>
	<defs>
		<rect id="SVGID_1_" y="0" width="26.89" height="49.4"/>
	</defs>
	<clipPath id="SVGID_2_">
		<use xlink:href="#SVGID_1_"  style="overflow:visible;"/>
	</clipPath>
	<path class="st0" d="M21.66,23.8v-6h-1.93v6h-5.16v1.93h5.16v6h1.93v-6h5.23V23.8H21.66z M10.25,42.7c0,3.17-1.1,4.9-4.13,4.9
		c-2.96,0-4.13-1.72-4.13-4.9V22.9c0-2.97,2.06-5.52,4.61-5.52c2.41,0,3.65,0.96,3.65,4.9V42.7z M7.15,15.59
		c-2.41,0-4.33,1.59-5.16,3.52V6.9c0-3.17,1.17-5.1,4.13-5.1c3.03,0,4.13,1.93,4.13,5.1v4.07h1.93V7.04c0-4.9-2.2-7.04-6.05-7.04
		C2.27,0,0,2.14,0,7.04v35.53c0,4.9,2.27,6.83,6.12,6.83c3.85,0,6.19-1.93,6.19-6.83V22.28C12.31,16.97,10.04,15.59,7.15,15.59"/>
</g>
</svg>
