<?xml version="1.0" encoding="utf-8"?>
<!-- Generator: Adobe Illustrator 23.0.0, SVG Export Plug-In . SVG Version: 6.00 Build 0)  -->
<svg version="1.1" id="Слой_1" xmlns="http://www.w3.org/2000/svg" xmlns:xlink="http://www.w3.org/1999/xlink" x="0px" y="0px"
	 viewBox="0 0 84.42 25.51" style="enable-background:new 0 0 84.42 25.51;" xml:space="preserve">
<style type="text/css">
	.st0{clip-path:url(#SVGID_2_);fill:#92CCF2;}
</style>
<g>
	<defs>
		<rect id="SVGID_1_" y="0" width="84.42" height="25.51"/>
	</defs>
	<clipPath id="SVGID_2_">
		<use xlink:href="#SVGID_1_"  style="overflow:visible;"/>
	</clipPath>
	<path class="st0" d="M55.2,23.51c-0.22-0.21-0.49-0.32-0.82-0.32c-0.33,0-0.6,0.12-0.82,0.32c-0.22,0.22-0.34,0.51-0.35,0.84
		c0.01,0.34,0.12,0.61,0.35,0.82c0.22,0.22,0.49,0.33,0.82,0.34c0.33-0.01,0.6-0.12,0.82-0.34c0.23-0.21,0.34-0.48,0.34-0.82
		C55.54,24.02,55.43,23.73,55.2,23.51 M53.82,23.75c0.14-0.15,0.33-0.24,0.57-0.24c0.24,0,0.42,0.09,0.56,0.24
		c0.14,0.16,0.22,0.36,0.22,0.6c0,0.25-0.08,0.43-0.22,0.6c-0.14,0.15-0.33,0.22-0.56,0.24c-0.24-0.01-0.42-0.09-0.57-0.24
		c-0.15-0.17-0.23-0.35-0.23-0.6C53.59,24.11,53.67,23.91,53.82,23.75 M61.08,23.19c0.31,0,0.54,0.12,0.67,0.36l-0.27,0.18
		c-0.08-0.14-0.21-0.22-0.39-0.22c-0.2,0.01-0.3,0.09-0.31,0.27c0,0.07,0.03,0.15,0.08,0.19c0.07,0.05,0.16,0.1,0.28,0.14l0.15,0.08
		c0.18,0.06,0.31,0.16,0.41,0.25c0.09,0.09,0.15,0.24,0.16,0.43c-0.01,0.21-0.08,0.37-0.22,0.47c-0.13,0.1-0.32,0.16-0.54,0.16
		c-0.4-0.01-0.66-0.17-0.82-0.48l0.31-0.15c0.1,0.19,0.27,0.29,0.51,0.3c0.26-0.01,0.39-0.11,0.41-0.3
		c-0.01-0.11-0.05-0.18-0.11-0.24c-0.08-0.05-0.15-0.09-0.25-0.14L61,24.44c-0.17-0.08-0.3-0.15-0.41-0.24
		c-0.1-0.11-0.15-0.24-0.16-0.41c0.01-0.18,0.07-0.32,0.18-0.42C60.73,23.25,60.89,23.19,61.08,23.19 M22.07,23.98
		c0.06,0.05,0.15,0.1,0.27,0.14l0.15,0.08c0.18,0.06,0.31,0.16,0.42,0.25c0.09,0.1,0.14,0.24,0.15,0.43
		c-0.01,0.21-0.07,0.37-0.22,0.47c-0.13,0.1-0.31,0.16-0.54,0.16c-0.39-0.01-0.66-0.17-0.81-0.48l0.3-0.15
		c0.1,0.19,0.27,0.29,0.51,0.3c0.25-0.01,0.4-0.11,0.41-0.3c-0.01-0.11-0.04-0.18-0.1-0.24c-0.08-0.05-0.16-0.09-0.25-0.14
		l-0.17-0.07c-0.17-0.08-0.3-0.15-0.4-0.24c-0.1-0.11-0.16-0.24-0.17-0.41c0.01-0.18,0.08-0.32,0.19-0.42
		c0.11-0.11,0.27-0.17,0.47-0.17c0.3,0,0.53,0.12,0.66,0.36l-0.26,0.18c-0.08-0.14-0.22-0.22-0.4-0.22c-0.2,0.01-0.3,0.09-0.3,0.27
		C21.99,23.85,22.01,23.93,22.07,23.98 M29.52,23.22v0.33h-0.67v1.95h-0.35v-1.95h-0.67v-0.33H29.52z M36.12,24.68
		c0,0.27-0.09,0.48-0.24,0.63c-0.16,0.13-0.37,0.2-0.61,0.2c-0.26,0-0.46-0.07-0.61-0.2c-0.16-0.15-0.25-0.35-0.25-0.63v-1.47h0.35
		v1.44c0.01,0.36,0.18,0.53,0.52,0.53c0.33,0,0.5-0.17,0.5-0.53v-1.44h0.36V24.68z M41.77,23.22h-0.62v2.27h0.62
		c0.38-0.01,0.67-0.12,0.88-0.33c0.21-0.2,0.32-0.48,0.32-0.82c0-0.33-0.11-0.61-0.32-0.81C42.43,23.33,42.15,23.22,41.77,23.22
		 M41.49,23.54h0.27c0.28,0.01,0.5,0.07,0.63,0.22c0.13,0.15,0.2,0.35,0.2,0.59c0,0.25-0.07,0.43-0.2,0.58
		c-0.13,0.15-0.35,0.23-0.63,0.24h-0.27V23.54z M71.25,6.44H77v0.58h-1.79l3.62,8.88l3.83-10.46h-1.96V4.86h3.72v0.57h-1.07
		l-5.21,14.1c-0.28,0.76-0.57,1.44-0.88,2.01c-0.3,0.56-0.58,0.97-0.85,1.23c-0.52,0.51-1.2,0.75-2.07,0.75
		c-0.37,0-0.74-0.06-1.13-0.16c-0.37-0.12-0.67-0.26-0.91-0.43v-4.18h0.72c0.12,0.43,0.28,0.99,0.47,1.67
		c0.4,1.5,0.91,2.24,1.53,2.24c0.47,0,0.88-0.24,1.24-0.69c0.19-0.24,0.39-0.56,0.59-0.97c0.21-0.43,0.4-0.89,0.56-1.39l0.21-0.67
		L72.5,7.01h-1.25V6.44z M64.94,0h-3.96v0.58h1.46v17.5h-1.46v0.58h5.42v-0.58h-1.46V0z M72.14,16.68l-5.09-7.48l3.92-4.04h1.25
		V4.59h-4.19v0.58h2.04l-4.93,5.14l4.6,6.96h3.52v-0.58H72.14z M51.6,2.88c-0.82,0.55-1.22,1.26-1.22,2.09
		c0,1.31,1.52,2.56,4.56,3.76c0.14,0.07,0.25,0.1,0.3,0.13c2.35,0.92,3.9,1.74,4.61,2.44c0.7,0.71,1.05,1.61,1.05,2.65
		c0,1.5-0.67,2.76-2.02,3.76c-1.36,1.02-3.06,1.52-5.13,1.52c-1.12,0-2.17-0.13-3.13-0.42c-0.96-0.28-1.67-0.65-2.16-1.1v-5.17h0.6
		c0.01,0.04,0.03,0.09,0.06,0.17c1.21,3.98,2.8,5.95,4.75,5.95c1.32,0,2.4-0.36,3.25-1.09c0.86-0.73,1.28-1.63,1.28-2.69
		c0-0.74-0.24-1.36-0.75-1.88c-0.49-0.49-1.58-1.1-3.28-1.78c-2.57-1.03-4.21-1.88-4.92-2.56c-0.71-0.69-1.06-1.54-1.06-2.57
		c0-1.33,0.61-2.43,1.85-3.27c1.22-0.85,2.83-1.27,4.84-1.27c0.77,0,1.57,0.09,2.37,0.24c0.8,0.16,1.6,0.4,2.4,0.73V7.2h-0.62
		c-0.04-0.13-0.09-0.3-0.18-0.52c-1.02-3.1-2.48-4.64-4.36-4.64C53.44,2.04,52.42,2.32,51.6,2.88 M44.31,10V9.62
		c0-1.63-0.45-2.91-1.36-3.82c-0.89-0.9-2.15-1.36-3.76-1.36c-1.74,0-3.18,0.62-4.32,1.85c-1.16,1.23-1.74,2.81-1.74,4.72
		c0,1.93,0.58,3.51,1.74,4.75c1.16,1.25,2.6,1.88,4.34,1.88c1.54,0,2.78-0.45,3.69-1.37c0.91-0.89,1.43-2.19,1.56-3.9h-0.72
		c-0.14,1.45-0.57,2.57-1.31,3.38c-0.74,0.8-1.7,1.21-2.88,1.21c-1.22,0-2.13-0.51-2.76-1.51c-0.63-0.99-0.94-2.46-0.94-4.41
		c0-0.13,0.01-0.33,0.02-0.56c0-0.24,0.01-0.4,0.01-0.5H44.31z M41.59,8.85c-0.01,0.17-0.01,0.32-0.02,0.5l-5.59-0.01
		c0.07-1.39,0.37-2.47,0.91-3.24c0.56-0.76,1.3-1.15,2.24-1.15c0.83,0,1.45,0.28,1.85,0.85c0.42,0.57,0.61,1.45,0.61,2.6V8.85z
		 M20.12,7.01V6.44h4.07v9.36c0,0.84,0.15,1.49,0.47,1.93c0.14,0.21,0.38,0.37,0.72,0.49c0.3,0.11,0.61,0.15,0.94,0.15
		c0.84,0,1.49-0.38,1.95-1.13c0.47-0.76,0.71-1.82,0.71-3.19V5.43h-1.88V4.86h4.38v14.07h1.46v0.66h-3.84v-2.97
		c-0.24,0.81-0.68,1.45-1.3,1.93c-0.3,0.22-0.7,0.4-1.19,0.53c-0.45,0.12-0.9,0.17-1.35,0.17c-1.34,0-2.28-0.34-2.83-1.02
		c-0.57-0.68-0.85-2.01-0.85-4V7.01H20.12z M18.73,0v16.8h1.56v0.57h-5.62V16.8h1.46V0.57h-1.46V0H18.73z M0,2.42h1.67v15.86H0v0.58
		h5.76c1.62,0,2.88-0.06,3.79-0.19c0.89-0.13,1.63-0.34,2.23-0.64c0.89-0.43,1.56-0.98,2.02-1.65c0.46-0.67,0.7-1.42,0.7-2.26
		c0-1.23-0.53-2.25-1.59-3.01c-1.05-0.77-2.53-1.21-4.44-1.34c1.61-0.19,2.84-0.62,3.7-1.28c0.86-0.66,1.29-1.52,1.29-2.58
		c0-0.71-0.23-1.38-0.68-1.98c-0.45-0.62-1.07-1.1-1.86-1.46c-0.53-0.22-1.13-0.39-1.82-0.48C8.4,1.88,7.25,1.83,5.63,1.83H0V2.42z
		 M4.48,2.42h1.05c1.88,0,3.18,0.25,3.9,0.79c0.73,0.53,1.09,1.43,1.09,2.72c0,1.22-0.43,2.14-1.29,2.75
		c-0.86,0.61-2.17,0.91-3.9,0.91H4.48V2.42z M10.16,11.06c0.93,0.61,1.4,1.61,1.4,2.99c0,1.52-0.42,2.6-1.24,3.26
		c-0.83,0.63-2.25,0.96-4.3,0.96H4.48v-8.12h0.92C7.64,10.15,9.22,10.45,10.16,11.06 M81.38,17.38v0.09h-0.28v0.76h-0.11v-0.76H80.7
		v-0.09H81.38z M81.69,17.38l0.27,0.72l0.27-0.72h0.15v0.85h-0.11v-0.71h0L82,18.23h-0.1l-0.27-0.71h0v0.71h-0.11v-0.85H81.69z
		 M47.91,23.22h0.36v2.27h-0.36V23.22z"/>
</g>
</svg>
