<svg id="Слой_1" data-name="Слой 1" xmlns="http://www.w3.org/2000/svg" xmlns:xlink="http://www.w3.org/1999/xlink" viewBox="0 0 35.65 30.97"><defs><style>.cls-1,.cls-4{fill:none;}.cls-2{clip-path:url(#clip-path);}.cls-3{fill:#531b62;}.cls-4{stroke:#531b62;}</style><clipPath id="clip-path"><rect class="cls-1" width="35.65" height="30.97"/></clipPath></defs><title>Монтажная область 1</title><g class="cls-2"><path class="cls-3" d="M35.15,12.23C35.15,5.75,30.41.5,24.56.5a9.94,9.94,0,0,0-6.73,2.68A10,10,0,0,0,11.09.5C5.24.5.5,5.75.5,12.23S17.83,30.36,17.83,30.36,35.15,18.71,35.15,12.23"/><path class="cls-4" d="M35.15,12.23C35.15,5.75,30.41.5,24.56.5a9.94,9.94,0,0,0-6.73,2.68A10,10,0,0,0,11.09.5C5.24.5.5,5.75.5,12.23S17.83,30.36,17.83,30.36,35.15,18.71,35.15,12.23Z"/></g></svg>