<?xml version="1.0" encoding="utf-8"?>
<!-- Generator: Adobe Illustrator 23.0.0, SVG Export Plug-In . SVG Version: 6.00 Build 0)  -->
<svg version="1.1" id="Слой_1" xmlns="http://www.w3.org/2000/svg" xmlns:xlink="http://www.w3.org/1999/xlink" x="0px" y="0px"
	 viewBox="0 0 131.58 131.58" style="enable-background:new 0 0 131.58 131.58;" xml:space="preserve">
<style type="text/css">
	.st0{clip-path:url(#SVGID_2_);fill:#FFFFFF;}
	.st1{clip-path:url(#SVGID_4_);fill:#92CCF2;}
	.st2{clip-path:url(#SVGID_6_);fill:none;stroke:#92CCF2;stroke-width:5;}
</style>
<g>
	<defs>
		<rect id="SVGID_1_" width="131.58" height="131.58"/>
	</defs>
	<clipPath id="SVGID_2_">
		<use xlink:href="#SVGID_1_"  style="overflow:visible;"/>
	</clipPath>
	<path class="st0" d="M65.79,129.08c34.96,0,63.29-28.34,63.29-63.29S100.75,2.5,65.79,2.5S2.5,30.84,2.5,65.79
		S30.84,129.08,65.79,129.08"/>
</g>
<g>
	<defs>
		<path id="SVGID_3_" d="M2.5,65.79c0,34.95,28.34,63.29,63.29,63.29c34.96,0,63.29-28.34,63.29-63.29
			c0-34.96-28.34-63.29-63.29-63.29C30.84,2.5,2.5,30.84,2.5,65.79"/>
	</defs>
	<clipPath id="SVGID_4_">
		<use xlink:href="#SVGID_3_"  style="overflow:visible;"/>
	</clipPath>
	<path class="st1" d="M46.27,101.52c-7.18-0.01-11.15-3.81-11.42-10.94c-0.06-1.63-0.09-3.27-0.04-4.9c0.06-2.22,1.53-3.67,3.45-3.5
		c1.92,0.17,3.26,1.83,3.16,3.92c-0.07,1.47-0.28,2.95-0.18,4.41c0.21,2.9,1.54,4.13,4.45,4.35c0.62,0.05,26.75,0.08,39.2,0.09
		c3.79,0,5.01-1.09,5.29-4.9c0.09-1.31-0.1-2.64-0.1-3.95c0.02-2.39,1.34-3.88,3.42-3.92c1.9-0.04,3.18,1.41,3.25,3.73
		c0.05,1.4,0.08,2.8,0.06,4.2c-0.08,6.96-4.4,11.34-11.34,11.4C78.93,101.56,52.8,101.53,46.27,101.52"/>
	<path class="st1" d="M89.09,54c-2.61-2.57-6.15-2.37-9.05,0.59c-2.62,2.66-8.58,8.31-8.58,8.31c0-0.82,0.06-18.27,0.03-25.89
		c-0.01-3.36-1.42-5.67-3.87-6.56c-0.66-0.24-1.32-0.37-1.97-0.39v0c0,0-0.01,0-0.02,0s-0.01,0-0.02,0v0
		c-0.65,0.03-1.31,0.15-1.97,0.39c-2.45,0.89-3.86,3.2-3.87,6.56c-0.03,7.63,0.03,25.07,0.03,25.89c0,0-5.96-5.65-8.58-8.31
		c-2.9-2.95-6.44-3.15-9.05-0.59c-2.5,2.46-2.32,6.01,0.53,8.87C48.85,69.05,55,75.22,61.2,81.34c1.39,1.37,2.91,2.09,4.42,2.15v0
		c0,0,0.01,0,0.02,0s0.01,0,0.02,0v0c1.51-0.06,3.04-0.78,4.42-2.15c6.19-6.13,12.35-12.29,18.49-18.47
		C91.41,60,91.58,56.45,89.09,54"/>
</g>
<g>
	<defs>
		<rect id="SVGID_5_" width="131.58" height="131.58"/>
	</defs>
	<clipPath id="SVGID_6_">
		<use xlink:href="#SVGID_5_"  style="overflow:visible;"/>
	</clipPath>
	<circle class="st2" cx="65.79" cy="65.79" r="63.29"/>
</g>
</svg>
