<?xml version="1.0" encoding="utf-8"?>
<!-- Generator: Adobe Illustrator 23.0.0, SVG Export Plug-In . SVG Version: 6.00 Build 0)  -->
<svg version="1.1" id="Слой_1" xmlns="http://www.w3.org/2000/svg" xmlns:xlink="http://www.w3.org/1999/xlink" x="0px" y="0px"
	 viewBox="0 0 131.58 131.58" style="enable-background:new 0 0 131.58 131.58;" xml:space="preserve">
<style type="text/css">
	.st0{clip-path:url(#SVGID_2_);fill:#FFFFFF;}
	.st1{clip-path:url(#SVGID_4_);fill:#92CCF2;}
	.st2{clip-path:url(#SVGID_6_);fill:none;stroke:#92CCF2;stroke-width:5;}
</style>
<g>
	<defs>
		<rect id="SVGID_1_" width="131.58" height="131.58"/>
	</defs>
	<clipPath id="SVGID_2_">
		<use xlink:href="#SVGID_1_"  style="overflow:visible;"/>
	</clipPath>
	<path class="st0" d="M65.79,129.08c34.96,0,63.29-28.34,63.29-63.29S100.75,2.5,65.79,2.5S2.5,30.84,2.5,65.79
		S30.84,129.08,65.79,129.08"/>
</g>
<g>
	<defs>
		<path id="SVGID_3_" d="M2.5,65.79c0,34.95,28.34,63.29,63.29,63.29c34.96,0,63.29-28.34,63.29-63.29
			c0-34.96-28.34-63.29-63.29-63.29C30.84,2.5,2.5,30.84,2.5,65.79"/>
	</defs>
	<clipPath id="SVGID_4_">
		<use xlink:href="#SVGID_3_"  style="overflow:visible;"/>
	</clipPath>
	<path class="st1" d="M95.76,52H68.39v12.45h27.37c1.43,0,2.6-1.17,2.6-2.6V54.6C98.36,53.17,97.19,52,95.76,52"/>
	<path class="st1" d="M33.23,54.6v7.25c0,1.43,1.17,2.6,2.6,2.6h27.37V52H35.83C34.4,52,33.23,53.17,33.23,54.6"/>
	<path class="st1" d="M37.13,69.65v26.02c0,1.43,1.17,2.6,2.6,2.6h23.47V67.05H39.73C38.3,67.05,37.13,68.22,37.13,69.65"/>
	<path class="st1" d="M91.86,67.05H68.39v31.22h23.47c1.43,0,2.6-1.17,2.6-2.6V69.65C94.46,68.22,93.29,67.05,91.86,67.05"/>
	<path class="st1" d="M52.06,40.26c-0.25-0.51-0.39-1.17,0.44-2.23c0.44-0.56,0.89-0.82,1.46-0.82c0.18,0,0.37,0.03,0.58,0.07
		c1.6,0.39,3.76,2.15,5.77,4.71c0.89,1.13,1.62,2.25,2.18,3.26C57.77,44.53,53.1,42.41,52.06,40.26 M71.27,42
		c2.01-2.57,4.17-4.33,5.77-4.71c0.21-0.05,0.4-0.07,0.58-0.07c0.57,0,1.02,0.26,1.46,0.82c0.83,1.06,0.69,1.72,0.44,2.23
		c-1.04,2.15-5.71,4.27-10.45,4.99C69.65,44.25,70.38,43.13,71.27,42 M75.73,47.52c2.58-0.99,5.95-2.76,7.3-5.55
		c1.01-2.08,0.69-4.33-0.89-6.34c-1.53-1.94-3.66-2.69-6.02-2.13c-4.01,0.96-8.02,5.58-10.34,9.67c-2.32-4.08-6.33-8.71-10.34-9.67
		c-2.36-0.57-4.49,0.19-6.02,2.13c-1.58,2.01-1.89,4.26-0.89,6.34c1.35,2.79,4.72,4.56,7.31,5.55c3.15,1.21,6.77,1.9,9.93,1.9v-1.28
		l0,0l0,0v1.28C68.96,49.42,72.58,48.73,75.73,47.52"/>
</g>
<g>
	<defs>
		<rect id="SVGID_5_" width="131.58" height="131.58"/>
	</defs>
	<clipPath id="SVGID_6_">
		<use xlink:href="#SVGID_5_"  style="overflow:visible;"/>
	</clipPath>
	<circle class="st2" cx="65.79" cy="65.79" r="63.29"/>
</g>
</svg>
