<svg id="Слой_1" data-name="Слой 1" xmlns="http://www.w3.org/2000/svg" xmlns:xlink="http://www.w3.org/1999/xlink" viewBox="0 0 131.58 131.58"><defs><style>.cls-1,.cls-6{fill:none;}.cls-2{clip-path:url(#clip-path);}.cls-3{fill:#fff;}.cls-4{clip-path:url(#clip-path-2);}.cls-5{fill:#6dcdf6;}.cls-6{stroke:#6dcdf6;stroke-width:5px;}</style><clipPath id="clip-path" transform="translate(0)"><rect class="cls-1" width="131.58" height="131.58"/></clipPath><clipPath id="clip-path-2" transform="translate(0)"><path class="cls-1" d="M2.5,65.79A63.29,63.29,0,1,0,65.79,2.5,63.29,63.29,0,0,0,2.5,65.79"/></clipPath></defs><title>icon-1</title><g class="cls-2"><path class="cls-3" d="M65.79,129.08A63.29,63.29,0,1,0,2.5,65.79a63.28,63.28,0,0,0,63.29,63.29" transform="translate(0)"/></g><g class="cls-4"><path class="cls-3" d="M74,69.12A8.09,8.09,0,1,1,65.88,61,8.09,8.09,0,0,1,74,69.12" transform="translate(0)"/><path class="cls-3" d="M74.8,69.12A9.1,9.1,0,1,1,65.7,60a9.09,9.09,0,0,1,9.1,9.09" transform="translate(0)"/><path class="cls-5" d="M65.7,56.7A12.43,12.43,0,1,0,78.13,69.13,12.43,12.43,0,0,0,65.7,56.7" transform="translate(0)"/><path class="cls-5" d="M96.23,60.41a3,3,0,1,1,3-3,3,3,0,0,1-3,3m-30.53,27A18.31,18.31,0,1,1,84,69.12,18.32,18.32,0,0,1,65.7,87.43M97,50.44H83.26s-5-10-8.15-11.69a.49.49,0,0,0-.17,0H56.64a.49.49,0,0,0-.17,0c-3.16,1.65-8.15,11.69-8.15,11.69H45.47a2.61,2.61,0,0,0,.1-.69,2.53,2.53,0,0,0-2.39-2.65H37.5a2.52,2.52,0,0,0-2.38,2.65,3.1,3.1,0,0,0,.09.69h-.59a6.24,6.24,0,0,0-6.24,6.24V86.6a6.24,6.24,0,0,0,6.24,6.24H97a6.24,6.24,0,0,0,6.24-6.24V56.68A6.24,6.24,0,0,0,97,50.44" transform="translate(0)"/></g><g class="cls-2"><circle class="cls-6" cx="65.79" cy="65.79" r="63.29"/></g></svg>