<?xml version="1.0" encoding="utf-8"?>
<!-- Generator: Adobe Illustrator 23.0.0, SVG Export Plug-In . SVG Version: 6.00 Build 0)  -->
<svg version="1.1" id="Слой_1" xmlns="http://www.w3.org/2000/svg" xmlns:xlink="http://www.w3.org/1999/xlink" x="0px" y="0px"
	 viewBox="0 0 235.87 52.61" style="enable-background:new 0 0 235.87 52.61;" xml:space="preserve">
<style type="text/css">
	.st0{clip-path:url(#SVGID_2_);fill:#FFFFFF;}
	.st1{fill:#FFFFFF;}
	.st2{clip-path:url(#SVGID_4_);fill:#FFFFFF;}
	.st3{clip-path:url(#SVGID_6_);fill:#FFFFFF;}
	.st4{clip-path:url(#SVGID_8_);fill:#FFFFFF;}
</style>
<g>
	<defs>
		<rect id="SVGID_1_" y="0" width="235.87" height="52.61"/>
	</defs>
	<clipPath id="SVGID_2_">
		<use xlink:href="#SVGID_1_"  style="overflow:visible;"/>
	</clipPath>
	<path class="st0" d="M68.2,2.14V0H53.51v2.14h7.04L49.9,39.62L39.63,2.14h6.32V0h-18.6v2.14h5.79L22.49,39.62L12.21,2.14h6.32V0H0
		v2.14h4.7l13.81,50.47h2.32L33.78,7.2l0.35-1.65l11.81,47.06h2.3L62.67,2.14H68.2z M73.47,12.73L73.47,12.73h-0.03
		c-7.55,0-11.97,4.7-11.99,13.39v7.42c0.04,8.69,4.46,13.37,11.99,13.37h0.03c7.55,0,11.96-4.68,12-13.37v-7.42
		C85.43,17.43,81.02,12.73,73.47,12.73 M79.6,37.32c0,7.16-2.02,8.22-6.15,8.22c-4.09,0-6.15-1.05-6.18-8.05V22.29
		c0.03-7.02,2.09-8.09,6.18-8.09c4.14,0,6.15,1.08,6.15,8.23c0,0.01-0.01,0.01-0.01,0.02V37.3C79.58,37.31,79.6,37.32,79.6,37.32
		 M141.62,12.09h-1.85l-10.24,32.74h-3.21v1.42h9.6v-1.42h-4.63l3.12-9.97h8.75l2.74,9.97h-3.64v1.42h11.62v-1.42h-3.15
		L141.62,12.09z M134.83,33.54l4.07-13.01h0.32l3.56,13.01H134.83z M121.17,44.82l0.02-30.61h3.18v-1.43h-8.91l-0.01,0.02h-0.02
		L106,39.36l-8.96-26.57l-0.01,0.01v-0.01h-8.84v1.45h3.13v30.59h-2.95v1.42h9.31v-1.42h-4.39V15.8l10.51,31.47h1.46l11.07-31.13
		l-0.06,28.69h-3.41v1.42h11.88v-1.42h-3.58L121.17,44.82z M171.98,14.22h4.78v22.1l-13.93-23.47v-0.06h-8.13v1.43h2.9v30.62h-2.9
		v1.41h9.19v-1.41h-4.83V17.13l17.69,29.84l0.01-0.06v0.07h1.46V14.22h3.15v-1.43h-9.39V14.22z M184.96,37.01
		c-1.79,0-3.2,1.59-3.2,3.57c0,1.96,1.42,3.56,3.2,3.56c1.76,0,3.17-1.59,3.17-3.56C188.14,38.6,186.72,37.01,184.96,37.01
		 M207.97,18.99c-0.05-0.08-0.09-0.13-0.15-0.19c0-0.02,0-0.02-0.02-0.03c-0.15-0.2-0.33-0.35-0.53-0.45
		c-0.44-0.29-1.07-0.53-1.98-0.53c-2.41,0-3.55,1.19-4.62,2.82c-0.68,1.04-1.39,2.44-1.83,3.29c-0.01-0.44-0.14-1.35-0.66-2.76
		c-0.7-1.87-1.37-2.52-1.46-2.61v-0.03h-5.7v1.41h3.61v22.1h-3.61v1.41h12.95v-1.41h-5.11v-15.3c0.55-1.36,1.42-3.13,2.68-5.05
		c1.29-1.63,1.94-2.1,2.69-2.1c0.33,0,0.35,1.48,0.33,2.22c-0.01,0.11-0.01,0.22-0.03,0.33v0.08v0.03c0,3.21,0.97,4.07,2.14,4.07
		c1.18,0,2.13-0.78,2.13-4.07c0-1.3-0.32-2.45-0.84-3.2C207.98,19.01,207.97,19,207.97,18.99 M233,41.99c-0.62,0-0.71-0.66-0.73-0.7
		V18.51h-4.23v18.81c-0.05,0.1-2.81,5.38-6.65,5.38c-1.98,0-2.62-1.05-2.62-2.26V18.51h-7.97v1.42h3.72v18.29
		c0,0-0.18,5.91,6.3,5.91c4.33,0,6.78-3.95,7.22-4.65v0.12c-0.05,2.27,0.72,3.8,1.87,3.81h5.95v-1.41H233z"/>
	<path class="st0" d="M76.91,6.46V2.41c0-0.18,0.01-0.78,0.04-1.11c-0.06,0.19-0.16,0.47-0.24,0.61l-2.5,4.55h-0.74V0.64h0.72v4.12
		c0,0.16-0.04,0.58-0.06,0.93c0.07-0.25,0.24-0.61,0.33-0.82l2.3-4.24h0.85v5.83H76.91z"/>
</g>
<polygon class="st1" points="83.26,0.63 83.26,3.08 80.74,3.08 80.74,0.63 80.04,0.63 80.04,6.46 80.74,6.46 80.74,3.64 83.26,3.64 
	83.26,6.46 83.97,6.46 83.97,0.63 "/>
<polygon class="st1" points="85.61,0.63 85.61,1.22 87.19,1.22 87.19,6.46 87.9,6.46 87.9,1.22 89.51,1.22 89.58,0.63 "/>
<polygon class="st1" points="91.15,0.63 91.15,6.46 94.48,6.46 94.48,5.88 91.87,5.88 91.87,3.72 93.9,3.72 93.9,3.12 91.87,3.12 
	91.87,1.23 94.3,1.23 94.41,0.63 "/>
<g>
	<defs>
		<rect id="SVGID_3_" y="0" width="235.87" height="52.61"/>
	</defs>
	<clipPath id="SVGID_4_">
		<use xlink:href="#SVGID_3_"  style="overflow:visible;"/>
	</clipPath>
	<path class="st2" d="M98.09,0.63c0.57,0,0.93,0.03,1.3,0.28c0.69,0.42,0.76,1.03,0.76,1.38c0,0.44-0.07,0.99-0.54,1.38
		c-0.5,0.45-1.07,0.46-1.43,0.46h-1.05v2.32h-0.7V0.63H98.09z M98.15,3.58c0.57,0,0.78-0.15,0.92-0.3c0.18-0.21,0.3-0.44,0.3-0.86
		c0-0.43-0.13-0.71-0.35-0.89c-0.28-0.26-0.67-0.3-1.13-0.3h-0.75v2.36H98.15z"/>
</g>
<polygon class="st1" points="105.21,0.63 105.21,3.08 102.7,3.08 102.7,0.63 101.98,0.63 101.98,6.46 102.7,6.46 102.7,3.64 
	105.21,3.64 105.21,6.46 105.91,6.46 105.91,0.63 "/>
<polygon class="st1" points="108.33,0.63 108.33,6.46 111.66,6.46 111.66,5.88 109.03,5.88 109.03,3.72 111.08,3.72 111.08,3.12 
	109.03,3.12 109.03,1.23 111.48,1.23 111.58,0.63 "/>
<polygon class="st1" points="112.62,0.63 112.62,1.22 114.21,1.22 114.21,6.46 114.95,6.46 114.95,1.22 116.53,1.22 116.59,0.63 "/>
<g>
	<defs>
		<rect id="SVGID_5_" y="0" width="235.87" height="52.61"/>
	</defs>
	<clipPath id="SVGID_6_">
		<use xlink:href="#SVGID_5_"  style="overflow:visible;"/>
	</clipPath>
	<path class="st3" d="M124.6,5.91h0.61v2.11h-0.7V6.46h-3.53v1.56h-0.67V5.91h0.36c0.43-0.88,0.64-1.61,0.71-1.88
		c0.24-0.9,0.33-1.73,0.36-2.51l0.02-0.89h2.83V5.91z M122.32,1.97c-0.01,0.29-0.11,1.43-0.36,2.35c-0.16,0.55-0.45,1.23-0.63,1.59
		h2.55V1.19h-1.51L122.32,1.97z"/>
	<path class="st3" d="M128.36,2.59c-0.12,1.8-0.21,3.02-0.7,3.53c-0.25,0.27-0.57,0.34-0.86,0.37l-0.3,0.04l-0.13-0.5l0.17-0.04
		c0.08-0.04,0.26-0.1,0.36-0.13c0.52-0.27,0.71-1.04,0.85-3.84l0.08-1.39h2.83v5.83h-0.69V1.19h-1.53L128.36,2.59z"/>
	<path class="st3" d="M136.09,6.46V3.82h-0.94c-0.3,0-0.48,0.12-0.59,0.22c-0.18,0.17-0.25,0.47-0.28,0.62l-0.15,0.77
		c-0.04,0.23-0.09,0.53-0.27,0.73c-0.13,0.14-0.31,0.27-0.71,0.32l-0.47,0.06l-0.13-0.5l0.16-0.04c0.08-0.04,0.29-0.1,0.36-0.13
		c0.14-0.08,0.2-0.17,0.28-0.43l0.25-0.96c0.06-0.26,0.18-0.48,0.3-0.61c0.12-0.11,0.27-0.24,0.54-0.31V3.54
		c-0.3-0.03-0.57-0.15-0.74-0.3c-0.32-0.26-0.48-0.64-0.48-1.02c0-0.43,0.18-0.93,0.57-1.23c0.38-0.31,0.84-0.36,1.51-0.36h1.5v5.83
		H136.09z M135.27,1.18c-0.22,0-0.54,0.03-0.82,0.19c-0.33,0.18-0.51,0.46-0.51,0.91c0,0.45,0.25,0.69,0.41,0.79
		c0.34,0.23,0.7,0.23,0.97,0.23h0.75V1.18H135.27z"/>
	<path class="st3" d="M148.59,1.05l-0.3,0.07c-0.07,0.02-0.2,0.07-0.26,0.12c-0.05,0.03-0.16,0.12-0.23,0.38l-0.24,0.83
		c-0.04,0.21-0.09,0.39-0.26,0.58c-0.1,0.16-0.25,0.26-0.39,0.33v0.01c0.1,0.05,0.24,0.11,0.35,0.26c0.14,0.17,0.24,0.4,0.28,0.62
		l0.35,1.18c0.05,0.15,0.07,0.3,0.28,0.43c0.07,0.03,0.26,0.09,0.34,0.13l0.18,0.04l-0.13,0.49l-0.5-0.05
		c-0.41-0.04-0.58-0.18-0.69-0.31c-0.16-0.21-0.21-0.46-0.28-0.74l-0.17-0.95c-0.04-0.09-0.12-0.44-0.31-0.6
		c-0.09-0.11-0.27-0.22-0.58-0.22h-0.56v2.82h-0.74V3.64h-0.56c-0.31,0-0.48,0.11-0.6,0.22c-0.17,0.16-0.27,0.52-0.28,0.6l-0.2,0.95
		c-0.04,0.27-0.09,0.53-0.25,0.74c-0.1,0.14-0.29,0.27-0.71,0.31l-0.48,0.05l-0.14-0.49l0.2-0.04c0.06-0.04,0.25-0.1,0.35-0.13
		c0.21-0.13,0.22-0.29,0.26-0.43l0.34-1.18c0.07-0.22,0.15-0.44,0.3-0.62c0.11-0.15,0.24-0.21,0.35-0.26V3.36
		c-0.16-0.07-0.28-0.17-0.41-0.33c-0.15-0.19-0.19-0.37-0.25-0.58l-0.24-0.83c-0.06-0.26-0.17-0.35-0.23-0.38
		c-0.04-0.06-0.17-0.1-0.27-0.12l-0.28-0.07l0.15-0.48l0.38,0.04c0.16,0.01,0.43,0.05,0.64,0.24c0.16,0.16,0.24,0.42,0.28,0.6
		l0.18,0.84c0.01,0.12,0.07,0.43,0.27,0.59c0.06,0.07,0.24,0.21,0.57,0.21h0.65V0.63h0.74v2.46h0.63c0.35,0,0.52-0.13,0.57-0.21
		c0.19-0.16,0.26-0.47,0.29-0.59l0.17-0.84c0.03-0.18,0.13-0.45,0.27-0.6c0.21-0.19,0.48-0.23,0.65-0.24l0.37-0.04L148.59,1.05z"/>
</g>
<polygon class="st1" points="150.56,0.63 150.56,6.46 153.9,6.46 153.9,5.88 151.28,5.88 151.28,3.72 153.33,3.72 153.33,3.12 
	151.28,3.12 151.28,1.23 153.72,1.23 153.82,0.63 "/>
<polygon class="st1" points="159.05,0.63 159.05,3.08 156.57,3.08 156.57,0.63 155.85,0.63 155.85,6.46 156.57,6.46 156.57,3.64 
	159.05,3.64 159.05,6.46 159.78,6.46 159.78,0.63 "/>
<polygon class="st1" points="167.21,0.63 167.21,5.93 165.4,5.93 165.4,0.63 164.7,0.63 164.7,5.93 162.89,5.93 162.89,0.63 
	162.19,0.63 162.19,6.46 167.83,6.46 167.83,8.02 168.51,8.02 168.51,5.93 167.9,5.93 167.9,0.63 "/>
<g>
	<defs>
		<rect id="SVGID_7_" y="0" width="235.87" height="52.61"/>
	</defs>
	<clipPath id="SVGID_8_">
		<use xlink:href="#SVGID_7_"  style="overflow:visible;"/>
	</clipPath>
	<path class="st4" d="M173.93,6.46V2.41c0-0.18,0.01-0.78,0.03-1.11c-0.05,0.19-0.15,0.47-0.23,0.61l-2.49,4.55h-0.75V0.64h0.72
		v4.12c0,0.16-0.02,0.58-0.07,0.93c0.07-0.25,0.24-0.61,0.34-0.82l2.3-4.24h0.86v5.83H173.93z"/>
</g>
<polygon class="st1" points="180.27,0.63 180.27,3.08 177.77,3.08 177.77,0.63 177.05,0.63 177.05,6.46 177.77,6.46 177.77,3.64 
	180.27,3.64 180.27,6.46 180.97,6.46 180.97,0.63 "/>
</svg>
