<?xml version="1.0" encoding="utf-8"?>
<!-- Generator: Adobe Illustrator 23.0.0, SVG Export Plug-In . SVG Version: 6.00 Build 0)  -->
<svg version="1.1" id="Слой_1" xmlns="http://www.w3.org/2000/svg" xmlns:xlink="http://www.w3.org/1999/xlink" x="0px" y="0px"
	 viewBox="0 0 135 33.38" style="enable-background:new 0 0 135 33.38;" xml:space="preserve">
<style type="text/css">
	.st0{clip-path:url(#SVGID_2_);fill:#E6E7E7;}
	.st1{clip-path:url(#SVGID_2_);fill:#93C7E8;}
</style>
<g>
	<defs>
		<rect id="SVGID_1_" y="0" width="135" height="33.38"/>
	</defs>
	<clipPath id="SVGID_2_">
		<use xlink:href="#SVGID_1_"  style="overflow:visible;"/>
	</clipPath>
	<path class="st0" d="M107.36,33.17c-1.9,0-2.55-0.34-2.55-1.81v-0.75l2.29-0.4v1.29h6c0.86,0,1.08-0.16,1.08-0.82v-0.69
		c0-0.66-0.22-0.84-1.08-0.84h-3.75v-1.51h3.34c0.86,0,1.06-0.18,1.06-0.84v-0.47c0-0.66-0.19-0.84-1.06-0.84h-5.5v1.15l-2.2-0.34
		v-0.58c0-1.47,0.65-1.81,2.55-1.81h6.02c1.9,0,2.55,0.34,2.55,1.81v0.85c0,1.09-0.56,1.54-2.16,1.75c1.76,0.15,2.59,0.72,2.59,1.89
		v0.97c0,1.43-0.56,1.99-2.7,1.99H107.36z M117.13,28.49h2.86v-1.06h-2.86V28.49z M123.82,31.43h3.34c3.28,0,4.92-0.68,4.92-2.98
		c0-1.88-1.23-2.89-3.67-2.89h-4.6V31.43z M121.23,23.91h7.16c4.16,0,6.37,1.71,6.37,4.58c0,1.74-0.91,3.17-2.46,3.96
		c-1.08,0.56-2.59,0.72-4.57,0.72h-6.49V23.91z M2.23,30.41h2.12l-1.1-2.46L2.23,30.41z M6.65,33.29h-1l-0.91-2H1.86l-0.86,2H0
		l2.92-6.83h0.69L6.65,33.29z M17.29,26.5h-0.92v5.25l-4.61-5.25h-0.78v6.79h0.92v-5.23l4.55,5.23h0.84V26.5z M23.37,27.37v5.04
		h1.55c2.21,0,2.72-1.68,2.72-2.52c0-1.36-0.87-2.52-2.77-2.52H23.37z M22.39,26.5h2.64c2.52,0,3.62,1.79,3.62,3.39
		c0,1.75-1.36,3.4-3.61,3.4h-2.65V26.5z M38.81,27.37v5.04h1.56c2.22,0,2.72-1.68,2.72-2.52c0-1.36-0.87-2.52-2.77-2.52H38.81z
		 M37.83,26.5h2.64c2.51,0,3.62,1.79,3.62,3.39c0,1.75-1.37,3.4-3.61,3.4h-2.65V26.5z M48.9,33.29h0.98V26.5H48.9V33.29z
		 M60.94,29.94h-2.28v0.88h1.31v1.39c-0.47,0.15-0.95,0.27-1.48,0.27c-1.62,0-2.75-1.07-2.75-2.58c0-1.47,1.15-2.6,2.62-2.6
		c0.82,0,1.65,0.23,2.44,0.67v-0.98c-1.07-0.45-1.63-0.58-2.42-0.58c-2.08,0-3.65,1.52-3.65,3.52c0,1.99,1.54,3.45,3.62,3.45
		c0.95,0,1.69-0.16,2.59-0.56V29.94z M65.96,33.29h0.98V26.5h-0.98V33.29z M77.14,26.5h-5.69v0.87h2.35v5.92h0.98v-5.92h2.36V26.5z
		 M83.14,30.41h2.12l-1.1-2.46L83.14,30.41z M87.56,33.29h-1l-0.91-2h-2.89l-0.86,2h-1l2.92-6.83h0.69L87.56,33.29z M92.87,26.5
		h-0.98v6.79h4.05v-0.88h-3.07V26.5z M57.87,17.67V5.86h-3.3V20.6h13.38v-2.93H57.87z M35.46,20.6h10.21l-1.58-2.85h-3.67l3.6-6.5
		l5.19,9.35h3.36L44.01,5.18L35.46,20.6z M18.4,8.8h14.97V5.86H18.4V8.8z M18.4,11.81v8.79h14.97v-2.93H21.52v-3.01h11.85v-2.85
		H18.4z M15.36,10.26c0-2.35-1.85-4.27-4.17-4.39L0.15,5.86v2.86h10.82c0.85,0,1.54,0.69,1.54,1.54c0,0.83-0.65,1.5-1.46,1.55H0.15
		v8.79h3.12v-5.94H8.5l4.14,5.94h3.57l-4.23-6.07C13.96,14.07,15.36,12.33,15.36,10.26 M82.49,5.85h-7.95v2.94h7.79
		c2.92,0,4.53,1.58,4.53,4.45c0,2.88-1.57,4.42-4.53,4.42h-4.66V11.8h-3.13v8.79h7.95c4.63,0,7.74-2.95,7.74-7.35
		C90.24,8.82,87.13,5.85,82.49,5.85 M112.45,5.87L101.4,5.86v2.86h10.82c0.86,0,1.54,0.69,1.54,1.54c0,0.83-0.65,1.5-1.46,1.54
		l-6.36,0.01v2.85h6.28c0.86,0,1.54,0.7,1.54,1.54c0,0.83-0.65,1.5-1.46,1.55h-10.9v2.85h8.35l3.49-0.12
		c1.97-0.47,3.37-2.21,3.37-4.28c0-1.14-0.44-2.18-1.15-2.96c0.72-0.79,1.15-1.83,1.15-2.98C116.62,7.91,114.76,5.99,112.45,5.87
		 M127.26,5.85h-7.95v2.94h7.79c2.92,0,4.53,1.58,4.53,4.45c0,2.88-1.57,4.42-4.53,4.42h-4.66V11.8h-3.12v8.79h7.95
		c4.63,0,7.74-2.95,7.74-7.35C135,8.82,131.89,5.85,127.26,5.85 M107.36,33.17h6.47c2.14,0,2.7-0.56,2.7-1.99v-0.97
		c0-1.17-0.82-1.74-2.59-1.89c1.59-0.21,2.16-0.66,2.16-1.75v-0.85c0-1.47-0.65-1.81-2.55-1.81h-6.02c-1.9,0-2.55,0.34-2.55,1.81
		v0.58l2.2,0.34v-1.15h5.5c0.86,0,1.06,0.18,1.06,0.84v0.47c0,0.66-0.19,0.84-1.06,0.84h-3.34v1.51h3.75c0.86,0,1.08,0.18,1.08,0.84
		v0.69c0,0.66-0.22,0.82-1.08,0.82h-6v-1.29l-2.29,0.4v0.75C104.82,32.83,105.47,33.17,107.36,33.17 M117.13,28.49h2.86v-1.06h-2.86
		V28.49z M123.82,31.43h3.34c3.28,0,4.92-0.68,4.92-2.98c0-1.88-1.23-2.89-3.67-2.89h-4.6V31.43z M121.23,23.91h7.16
		c4.16,0,6.37,1.71,6.37,4.58c0,1.74-0.91,3.17-2.46,3.96c-1.08,0.56-2.59,0.72-4.57,0.72h-6.49V23.91z M2.23,30.41h2.12l-1.1-2.46
		L2.23,30.41z M6.65,33.29h-1l-0.91-2H1.86l-0.86,2H0l2.92-6.83h0.69L6.65,33.29z M17.29,26.5h-0.92v5.25l-4.61-5.25h-0.78v6.79
		h0.92v-5.23l4.55,5.23h0.84V26.5z M23.37,27.37v5.04h1.55c2.21,0,2.72-1.68,2.72-2.52c0-1.36-0.87-2.52-2.77-2.52H23.37z
		 M22.39,26.5h2.64c2.52,0,3.62,1.79,3.62,3.39c0,1.75-1.36,3.4-3.61,3.4h-2.65V26.5z M38.81,27.37v5.04h1.56
		c2.22,0,2.72-1.68,2.72-2.52c0-1.36-0.87-2.52-2.77-2.52H38.81z M37.83,26.5h2.64c2.51,0,3.62,1.79,3.62,3.39
		c0,1.75-1.37,3.4-3.61,3.4h-2.65V26.5z M48.9,33.29h0.98V26.5H48.9V33.29z M6.87,0H6.31v3.2L3.51,0H3.03v4.13h0.56V0.95l2.77,3.18
		h0.51V0z M0.15,4.13h0.6V0h-0.6V4.13z M60.94,29.94h-2.28v0.88h1.31v1.39c-0.47,0.15-0.95,0.27-1.48,0.27
		c-1.62,0-2.75-1.07-2.75-2.58c0-1.47,1.15-2.6,2.62-2.6c0.82,0,1.65,0.23,2.44,0.67v-0.98c-1.07-0.45-1.63-0.58-2.42-0.58
		c-2.08,0-3.65,1.52-3.65,3.52c0,1.99,1.54,3.45,3.62,3.45c0.95,0,1.69-0.16,2.59-0.56V29.94z M65.96,33.29h0.98V26.5h-0.98V33.29z
		 M77.14,26.5h-5.69v0.87h2.35v5.92h0.98v-5.92h2.36V26.5z M83.14,30.41h2.12l-1.1-2.46L83.14,30.41z M87.56,33.29h-1l-0.91-2h-2.89
		l-0.86,2h-1l2.92-6.83h0.69L87.56,33.29z M92.87,26.5h-0.98v6.79h4.05v-0.88h-3.07V26.5z M107.36,33.17h6.47
		c2.14,0,2.7-0.56,2.7-1.99v-0.97c0-1.17-0.82-1.74-2.59-1.89c1.59-0.21,2.16-0.66,2.16-1.75v-0.85c0-1.47-0.65-1.81-2.55-1.81
		h-6.02c-1.9,0-2.55,0.34-2.55,1.81v0.58l2.2,0.34v-1.15h5.5c0.86,0,1.06,0.18,1.06,0.84v0.47c0,0.66-0.19,0.84-1.06,0.84h-3.34
		v1.51h3.75c0.86,0,1.08,0.18,1.08,0.84v0.69c0,0.66-0.22,0.82-1.08,0.82h-6v-1.29l-2.29,0.4v0.75
		C104.82,32.83,105.47,33.17,107.36,33.17 M117.13,28.49h2.86v-1.06h-2.86V28.49z M123.82,31.43h3.34c3.28,0,4.92-0.68,4.92-2.98
		c0-1.88-1.23-2.89-3.67-2.89h-4.6V31.43z M121.23,23.91h7.16c4.16,0,6.37,1.71,6.37,4.58c0,1.74-0.91,3.17-2.46,3.96
		c-1.08,0.56-2.59,0.72-4.57,0.72h-6.49V23.91z M2.23,30.41h2.12l-1.1-2.46L2.23,30.41z M6.65,33.29h-1l-0.91-2H1.86l-0.86,2H0
		l2.92-6.83h0.69L6.65,33.29z M17.29,26.5h-0.92v5.25l-4.61-5.25h-0.78v6.79h0.92v-5.23l4.55,5.23h0.84V26.5z M23.37,27.37v5.04
		h1.55c2.21,0,2.72-1.68,2.72-2.52c0-1.36-0.87-2.52-2.77-2.52H23.37z M22.39,26.5h2.64c2.52,0,3.62,1.79,3.62,3.39
		c0,1.75-1.36,3.4-3.61,3.4h-2.65V26.5z M38.81,27.37v5.04h1.56c2.22,0,2.72-1.68,2.72-2.52c0-1.36-0.87-2.52-2.77-2.52H38.81z
		 M37.83,26.5h2.64c2.51,0,3.62,1.79,3.62,3.39c0,1.75-1.37,3.4-3.61,3.4h-2.65V26.5z M48.9,33.29h0.98V26.5H48.9V33.29z
		 M60.94,29.94h-2.28v0.88h1.31v1.39c-0.47,0.15-0.95,0.27-1.48,0.27c-1.62,0-2.75-1.07-2.75-2.58c0-1.47,1.15-2.6,2.62-2.6
		c0.82,0,1.65,0.23,2.44,0.67v-0.98c-1.07-0.45-1.63-0.58-2.42-0.58c-2.08,0-3.65,1.52-3.65,3.52c0,1.99,1.54,3.45,3.62,3.45
		c0.95,0,1.69-0.16,2.59-0.56V29.94z M65.96,33.29h0.98V26.5h-0.98V33.29z M77.14,26.5h-5.69v0.87h2.35v5.92h0.98v-5.92h2.36V26.5z
		 M83.14,30.41h2.12l-1.1-2.46L83.14,30.41z M87.56,33.29h-1l-0.91-2h-2.89l-0.86,2h-1l2.92-6.83h0.69L87.56,33.29z M92.87,26.5
		h-0.98v6.79h4.05v-0.88h-3.07V26.5z M57.87,17.67V5.86h-3.3V20.6h13.38v-2.93H57.87z M35.46,20.6h10.21l-1.58-2.85h-3.67l3.6-6.5
		l5.19,9.35h3.36L44.01,5.18L35.46,20.6z M18.4,8.8h14.97V5.86H18.4V8.8z M18.4,11.81v8.79h14.97v-2.93H21.52v-3.01h11.85v-2.85
		H18.4z M15.36,10.26c0-2.35-1.85-4.27-4.17-4.39L0.15,5.86v2.86h10.82c0.85,0,1.54,0.69,1.54,1.54c0,0.83-0.65,1.5-1.46,1.55H0.15
		v8.79h3.12v-5.94H8.5l4.14,5.94h3.57l-4.23-6.07C13.96,14.07,15.36,12.33,15.36,10.26 M82.49,5.85h-7.95v2.94h7.79
		c2.92,0,4.53,1.58,4.53,4.45c0,2.88-1.57,4.42-4.53,4.42h-4.66V11.8h-3.13v8.79h7.95c4.63,0,7.74-2.95,7.74-7.35
		C90.24,8.82,87.13,5.85,82.49,5.85 M112.45,5.87L101.4,5.86v2.86h10.82c0.86,0,1.54,0.69,1.54,1.54c0,0.83-0.65,1.5-1.46,1.54
		l-6.36,0.01v2.85h6.28c0.86,0,1.54,0.7,1.54,1.54c0,0.83-0.65,1.5-1.46,1.55h-10.9v2.85h8.35l3.49-0.12
		c1.97-0.47,3.37-2.21,3.37-4.28c0-1.14-0.44-2.18-1.15-2.96c0.72-0.79,1.15-1.83,1.15-2.98C116.62,7.91,114.76,5.99,112.45,5.87
		 M127.26,5.85h-7.95v2.94h7.79c2.92,0,4.53,1.58,4.53,4.45c0,2.88-1.57,4.42-4.53,4.42h-4.66V11.8h-3.12v8.79h7.95
		c4.63,0,7.74-2.95,7.74-7.35C135,8.82,131.89,5.85,127.26,5.85 M107.36,33.17h6.47c2.14,0,2.7-0.56,2.7-1.99v-0.97
		c0-1.17-0.82-1.74-2.59-1.89c1.59-0.21,2.16-0.66,2.16-1.75v-0.85c0-1.47-0.65-1.81-2.55-1.81h-6.02c-1.9,0-2.55,0.34-2.55,1.81
		v0.58l2.2,0.34v-1.15h5.5c0.86,0,1.06,0.18,1.06,0.84v0.47c0,0.66-0.19,0.84-1.06,0.84h-3.34v1.51h3.75c0.86,0,1.08,0.18,1.08,0.84
		v0.69c0,0.66-0.22,0.82-1.08,0.82h-6v-1.29l-2.29,0.4v0.75C104.82,32.83,105.47,33.17,107.36,33.17 M117.13,28.49h2.86v-1.06h-2.86
		V28.49z M123.82,31.43h3.34c3.28,0,4.92-0.68,4.92-2.98c0-1.88-1.23-2.89-3.67-2.89h-4.6V31.43z M121.23,23.91h7.16
		c4.16,0,6.37,1.71,6.37,4.58c0,1.74-0.91,3.17-2.46,3.96c-1.08,0.56-2.59,0.72-4.57,0.72h-6.49V23.91z M2.23,30.41h2.12l-1.1-2.46
		L2.23,30.41z M6.65,33.29h-1l-0.91-2H1.86l-0.86,2H0l2.92-6.83h0.69L6.65,33.29z M17.29,26.5h-0.92v5.25l-4.61-5.25h-0.78v6.79
		h0.92v-5.23l4.55,5.23h0.84V26.5z M23.37,27.37v5.04h1.55c2.21,0,2.72-1.68,2.72-2.52c0-1.36-0.87-2.52-2.77-2.52H23.37z
		 M22.39,26.5h2.64c2.52,0,3.62,1.79,3.62,3.39c0,1.75-1.36,3.4-3.61,3.4h-2.65V26.5z M38.81,27.37v5.04h1.56
		c2.22,0,2.72-1.68,2.72-2.52c0-1.36-0.87-2.52-2.77-2.52H38.81z M37.83,26.5h2.64c2.51,0,3.62,1.79,3.62,3.39
		c0,1.75-1.37,3.4-3.61,3.4h-2.65V26.5z M48.9,33.29h0.98V26.5H48.9V33.29z M6.87,0H6.31v3.2L3.51,0H3.03v4.13h0.56V0.95l2.77,3.18
		h0.51V0z M0.15,4.13h0.6V0h-0.6V4.13z M60.94,29.94h-2.28v0.88h1.31v1.39c-0.47,0.15-0.95,0.27-1.48,0.27
		c-1.62,0-2.75-1.07-2.75-2.58c0-1.47,1.15-2.6,2.62-2.6c0.82,0,1.65,0.23,2.44,0.67v-0.98c-1.07-0.45-1.63-0.58-2.42-0.58
		c-2.08,0-3.65,1.52-3.65,3.52c0,1.99,1.54,3.45,3.62,3.45c0.95,0,1.69-0.16,2.59-0.56V29.94z M65.96,33.29h0.98V26.5h-0.98V33.29z
		 M77.14,26.5h-5.69v0.87h2.35v5.92h0.98v-5.92h2.36V26.5z M83.14,30.41h2.12l-1.1-2.46L83.14,30.41z M87.56,33.29h-1l-0.91-2h-2.89
		l-0.86,2h-1l2.92-6.83h0.69L87.56,33.29z M92.87,26.5h-0.98v6.79h4.05v-0.88h-3.07V26.5z"/>
	<path class="st1" d="M107.36,33.17c-1.9,0-2.55-0.34-2.55-1.81v-0.75l2.29-0.4v1.29h6c0.86,0,1.08-0.16,1.08-0.82v-0.69
		c0-0.66-0.22-0.84-1.08-0.84h-3.75v-1.51h3.34c0.86,0,1.06-0.18,1.06-0.84v-0.47c0-0.66-0.19-0.84-1.06-0.84h-5.5v1.15l-2.2-0.34
		v-0.58c0-1.47,0.65-1.81,2.55-1.81h6.02c1.9,0,2.55,0.34,2.55,1.81v0.85c0,1.09-0.56,1.54-2.16,1.75c1.76,0.15,2.59,0.72,2.59,1.89
		v0.97c0,1.43-0.56,1.99-2.7,1.99H107.36z M117.13,28.49h2.86v-1.06h-2.86V28.49z M123.82,31.43h3.34c3.28,0,4.92-0.68,4.92-2.98
		c0-1.88-1.23-2.89-3.67-2.89h-4.6V31.43z M121.23,23.91h7.16c4.16,0,6.37,1.71,6.37,4.58c0,1.74-0.91,3.17-2.46,3.96
		c-1.08,0.56-2.59,0.72-4.57,0.72h-6.49V23.91z M2.23,30.41h2.12l-1.1-2.46L2.23,30.41z M6.65,33.29h-1l-0.91-2H1.86l-0.86,2H0
		l2.92-6.83h0.69L6.65,33.29z M17.29,26.5h-0.92v5.25l-4.61-5.25h-0.78v6.79h0.92v-5.23l4.55,5.23h0.84V26.5z M23.37,27.37v5.04
		h1.55c2.21,0,2.72-1.68,2.72-2.52c0-1.36-0.87-2.52-2.77-2.52H23.37z M22.39,26.5h2.64c2.52,0,3.62,1.79,3.62,3.39
		c0,1.75-1.36,3.4-3.61,3.4h-2.65V26.5z M38.81,27.37v5.04h1.56c2.22,0,2.72-1.68,2.72-2.52c0-1.36-0.87-2.52-2.77-2.52H38.81z
		 M37.83,26.5h2.64c2.51,0,3.62,1.79,3.62,3.39c0,1.75-1.37,3.4-3.61,3.4h-2.65V26.5z M48.9,33.29h0.98V26.5H48.9V33.29z
		 M60.94,29.94h-2.28v0.88h1.31v1.39c-0.47,0.15-0.95,0.27-1.48,0.27c-1.62,0-2.75-1.07-2.75-2.58c0-1.47,1.15-2.6,2.62-2.6
		c0.82,0,1.65,0.23,2.44,0.67v-0.98c-1.07-0.45-1.63-0.58-2.42-0.58c-2.08,0-3.65,1.52-3.65,3.52c0,1.99,1.54,3.45,3.62,3.45
		c0.95,0,1.69-0.16,2.59-0.56V29.94z M65.96,33.29h0.98V26.5h-0.98V33.29z M77.14,26.5h-5.69v0.87h2.35v5.92h0.98v-5.92h2.36V26.5z
		 M83.14,30.41h2.12l-1.1-2.46L83.14,30.41z M87.56,33.29h-1l-0.91-2h-2.89l-0.86,2h-1l2.92-6.83h0.69L87.56,33.29z M92.87,26.5
		h-0.98v6.79h4.05v-0.88h-3.07V26.5z M57.87,17.67V5.86h-3.3V20.6h13.38v-2.93H57.87z M35.46,20.6h10.21l-1.58-2.85h-3.67l3.6-6.5
		l5.19,9.35h3.36L44.01,5.18L35.46,20.6z M18.4,8.8h14.97V5.86H18.4V8.8z M18.4,11.81v8.79h14.97v-2.93H21.52v-3.01h11.85v-2.85
		H18.4z M15.36,10.26c0-2.35-1.85-4.27-4.17-4.39L0.15,5.86v2.86h10.82c0.85,0,1.54,0.69,1.54,1.54c0,0.83-0.65,1.5-1.46,1.55H0.15
		v8.79h3.12v-5.94H8.5l4.14,5.94h3.57l-4.23-6.07C13.96,14.07,15.36,12.33,15.36,10.26 M82.49,5.85h-7.95v2.94h7.79
		c2.92,0,4.53,1.58,4.53,4.45c0,2.88-1.57,4.42-4.53,4.42h-4.66V11.8h-3.13v8.79h7.95c4.63,0,7.74-2.95,7.74-7.35
		C90.24,8.82,87.13,5.85,82.49,5.85 M112.45,5.87L101.4,5.86v2.86h10.82c0.86,0,1.54,0.69,1.54,1.54c0,0.83-0.65,1.5-1.46,1.54
		l-6.36,0.01v2.85h6.28c0.86,0,1.54,0.7,1.54,1.54c0,0.83-0.65,1.5-1.46,1.55h-10.9v2.85h8.35l3.49-0.12
		c1.97-0.47,3.37-2.21,3.37-4.28c0-1.14-0.44-2.18-1.15-2.96c0.72-0.79,1.15-1.83,1.15-2.98C116.62,7.91,114.76,5.99,112.45,5.87
		 M127.26,5.85h-7.95v2.94h7.79c2.92,0,4.53,1.58,4.53,4.45c0,2.88-1.57,4.42-4.53,4.42h-4.66V11.8h-3.12v8.79h7.95
		c4.63,0,7.74-2.95,7.74-7.35C135,8.82,131.89,5.85,127.26,5.85 M107.36,33.17h6.47c2.14,0,2.7-0.56,2.7-1.99v-0.97
		c0-1.17-0.82-1.74-2.59-1.89c1.59-0.21,2.16-0.66,2.16-1.75v-0.85c0-1.47-0.65-1.81-2.55-1.81h-6.02c-1.9,0-2.55,0.34-2.55,1.81
		v0.58l2.2,0.34v-1.15h5.5c0.86,0,1.06,0.18,1.06,0.84v0.47c0,0.66-0.19,0.84-1.06,0.84h-3.34v1.51h3.75c0.86,0,1.08,0.18,1.08,0.84
		v0.69c0,0.66-0.22,0.82-1.08,0.82h-6v-1.29l-2.29,0.4v0.75C104.82,32.83,105.47,33.17,107.36,33.17 M117.13,28.49h2.86v-1.06h-2.86
		V28.49z M123.82,31.43h3.34c3.28,0,4.92-0.68,4.92-2.98c0-1.88-1.23-2.89-3.67-2.89h-4.6V31.43z M121.23,23.91h7.16
		c4.16,0,6.37,1.71,6.37,4.58c0,1.74-0.91,3.17-2.46,3.96c-1.08,0.56-2.59,0.72-4.57,0.72h-6.49V23.91z M2.23,30.41h2.12l-1.1-2.46
		L2.23,30.41z M6.65,33.29h-1l-0.91-2H1.86l-0.86,2H0l2.92-6.83h0.69L6.65,33.29z M17.29,26.5h-0.92v5.25l-4.61-5.25h-0.78v6.79
		h0.92v-5.23l4.55,5.23h0.84V26.5z M23.37,27.37v5.04h1.55c2.21,0,2.72-1.68,2.72-2.52c0-1.36-0.87-2.52-2.77-2.52H23.37z
		 M22.39,26.5h2.64c2.52,0,3.62,1.79,3.62,3.39c0,1.75-1.36,3.4-3.61,3.4h-2.65V26.5z M38.81,27.37v5.04h1.56
		c2.22,0,2.72-1.68,2.72-2.52c0-1.36-0.87-2.52-2.77-2.52H38.81z M37.83,26.5h2.64c2.51,0,3.62,1.79,3.62,3.39
		c0,1.75-1.37,3.4-3.61,3.4h-2.65V26.5z M48.9,33.29h0.98V26.5H48.9V33.29z M6.87,0H6.31v3.2L3.51,0H3.03v4.13h0.56V0.95l2.77,3.18
		h0.51V0z M0.15,4.13h0.6V0h-0.6V4.13z M60.94,29.94h-2.28v0.88h1.31v1.39c-0.47,0.15-0.95,0.27-1.48,0.27
		c-1.62,0-2.75-1.07-2.75-2.58c0-1.47,1.15-2.6,2.62-2.6c0.82,0,1.65,0.23,2.44,0.67v-0.98c-1.07-0.45-1.63-0.58-2.42-0.58
		c-2.08,0-3.65,1.52-3.65,3.52c0,1.99,1.54,3.45,3.62,3.45c0.95,0,1.69-0.16,2.59-0.56V29.94z M65.96,33.29h0.98V26.5h-0.98V33.29z
		 M77.14,26.5h-5.69v0.87h2.35v5.92h0.98v-5.92h2.36V26.5z M83.14,30.41h2.12l-1.1-2.46L83.14,30.41z M87.56,33.29h-1l-0.91-2h-2.89
		l-0.86,2h-1l2.92-6.83h0.69L87.56,33.29z M92.87,26.5h-0.98v6.79h4.05v-0.88h-3.07V26.5z M107.36,33.17h6.47
		c2.14,0,2.7-0.56,2.7-1.99v-0.97c0-1.17-0.82-1.74-2.59-1.89c1.59-0.21,2.16-0.66,2.16-1.75v-0.85c0-1.47-0.65-1.81-2.55-1.81
		h-6.02c-1.9,0-2.55,0.34-2.55,1.81v0.58l2.2,0.34v-1.15h5.5c0.86,0,1.06,0.18,1.06,0.84v0.47c0,0.66-0.19,0.84-1.06,0.84h-3.34
		v1.51h3.75c0.86,0,1.08,0.18,1.08,0.84v0.69c0,0.66-0.22,0.82-1.08,0.82h-6v-1.29l-2.29,0.4v0.75
		C104.82,32.83,105.47,33.17,107.36,33.17 M117.13,28.49h2.86v-1.06h-2.86V28.49z M123.82,31.43h3.34c3.28,0,4.92-0.68,4.92-2.98
		c0-1.88-1.23-2.89-3.67-2.89h-4.6V31.43z M121.23,23.91h7.16c4.16,0,6.37,1.71,6.37,4.58c0,1.74-0.91,3.17-2.46,3.96
		c-1.08,0.56-2.59,0.72-4.57,0.72h-6.49V23.91z M2.23,30.41h2.12l-1.1-2.46L2.23,30.41z M6.65,33.29h-1l-0.91-2H1.86l-0.86,2H0
		l2.92-6.83h0.69L6.65,33.29z M17.29,26.5h-0.92v5.25l-4.61-5.25h-0.78v6.79h0.92v-5.23l4.55,5.23h0.84V26.5z M23.37,27.37v5.04
		h1.55c2.21,0,2.72-1.68,2.72-2.52c0-1.36-0.87-2.52-2.77-2.52H23.37z M22.39,26.5h2.64c2.52,0,3.62,1.79,3.62,3.39
		c0,1.75-1.36,3.4-3.61,3.4h-2.65V26.5z M38.81,27.37v5.04h1.56c2.22,0,2.72-1.68,2.72-2.52c0-1.36-0.87-2.52-2.77-2.52H38.81z
		 M37.83,26.5h2.64c2.51,0,3.62,1.79,3.62,3.39c0,1.75-1.37,3.4-3.61,3.4h-2.65V26.5z M48.9,33.29h0.98V26.5H48.9V33.29z
		 M60.94,29.94h-2.28v0.88h1.31v1.39c-0.47,0.15-0.95,0.27-1.48,0.27c-1.62,0-2.75-1.07-2.75-2.58c0-1.47,1.15-2.6,2.62-2.6
		c0.82,0,1.65,0.23,2.44,0.67v-0.98c-1.07-0.45-1.63-0.58-2.42-0.58c-2.08,0-3.65,1.52-3.65,3.52c0,1.99,1.54,3.45,3.62,3.45
		c0.95,0,1.69-0.16,2.59-0.56V29.94z M65.96,33.29h0.98V26.5h-0.98V33.29z M77.14,26.5h-5.69v0.87h2.35v5.92h0.98v-5.92h2.36V26.5z
		 M83.14,30.41h2.12l-1.1-2.46L83.14,30.41z M87.56,33.29h-1l-0.91-2h-2.89l-0.86,2h-1l2.92-6.83h0.69L87.56,33.29z M92.87,26.5
		h-0.98v6.79h4.05v-0.88h-3.07V26.5z M57.87,17.67V5.86h-3.3V20.6h13.38v-2.93H57.87z M35.46,20.6h10.21l-1.58-2.85h-3.67l3.6-6.5
		l5.19,9.35h3.36L44.01,5.18L35.46,20.6z M18.4,8.8h14.97V5.86H18.4V8.8z M18.4,11.81v8.79h14.97v-2.93H21.52v-3.01h11.85v-2.85
		H18.4z M15.36,10.26c0-2.35-1.85-4.27-4.17-4.39L0.15,5.86v2.86h10.82c0.85,0,1.54,0.69,1.54,1.54c0,0.83-0.65,1.5-1.46,1.55H0.15
		v8.79h3.12v-5.94H8.5l4.14,5.94h3.57l-4.23-6.07C13.96,14.07,15.36,12.33,15.36,10.26 M82.49,5.85h-7.95v2.94h7.79
		c2.92,0,4.53,1.58,4.53,4.45c0,2.88-1.57,4.42-4.53,4.42h-4.66V11.8h-3.13v8.79h7.95c4.63,0,7.74-2.95,7.74-7.35
		C90.24,8.82,87.13,5.85,82.49,5.85 M112.45,5.87L101.4,5.86v2.86h10.82c0.86,0,1.54,0.69,1.54,1.54c0,0.83-0.65,1.5-1.46,1.54
		l-6.36,0.01v2.85h6.28c0.86,0,1.54,0.7,1.54,1.54c0,0.83-0.65,1.5-1.46,1.55h-10.9v2.85h8.35l3.49-0.12
		c1.97-0.47,3.37-2.21,3.37-4.28c0-1.14-0.44-2.18-1.15-2.96c0.72-0.79,1.15-1.83,1.15-2.98C116.62,7.91,114.76,5.99,112.45,5.87
		 M127.26,5.85h-7.95v2.94h7.79c2.92,0,4.53,1.58,4.53,4.45c0,2.88-1.57,4.42-4.53,4.42h-4.66V11.8h-3.12v8.79h7.95
		c4.63,0,7.74-2.95,7.74-7.35C135,8.82,131.89,5.85,127.26,5.85 M107.36,33.17h6.47c2.14,0,2.7-0.56,2.7-1.99v-0.97
		c0-1.17-0.82-1.74-2.59-1.89c1.59-0.21,2.16-0.66,2.16-1.75v-0.85c0-1.47-0.65-1.81-2.55-1.81h-6.02c-1.9,0-2.55,0.34-2.55,1.81
		v0.58l2.2,0.34v-1.15h5.5c0.86,0,1.06,0.18,1.06,0.84v0.47c0,0.66-0.19,0.84-1.06,0.84h-3.34v1.51h3.75c0.86,0,1.08,0.18,1.08,0.84
		v0.69c0,0.66-0.22,0.82-1.08,0.82h-6v-1.29l-2.29,0.4v0.75C104.82,32.83,105.47,33.17,107.36,33.17 M117.13,28.49h2.86v-1.06h-2.86
		V28.49z M123.82,31.43h3.34c3.28,0,4.92-0.68,4.92-2.98c0-1.88-1.23-2.89-3.67-2.89h-4.6V31.43z M121.23,23.91h7.16
		c4.16,0,6.37,1.71,6.37,4.58c0,1.74-0.91,3.17-2.46,3.96c-1.08,0.56-2.59,0.72-4.57,0.72h-6.49V23.91z M2.23,30.41h2.12l-1.1-2.46
		L2.23,30.41z M6.65,33.29h-1l-0.91-2H1.86l-0.86,2H0l2.92-6.83h0.69L6.65,33.29z M17.29,26.5h-0.92v5.25l-4.61-5.25h-0.78v6.79
		h0.92v-5.23l4.55,5.23h0.84V26.5z M23.37,27.37v5.04h1.55c2.21,0,2.72-1.68,2.72-2.52c0-1.36-0.87-2.52-2.77-2.52H23.37z
		 M22.39,26.5h2.64c2.52,0,3.62,1.79,3.62,3.39c0,1.75-1.36,3.4-3.61,3.4h-2.65V26.5z M38.81,27.37v5.04h1.56
		c2.22,0,2.72-1.68,2.72-2.52c0-1.36-0.87-2.52-2.77-2.52H38.81z M37.83,26.5h2.64c2.51,0,3.62,1.79,3.62,3.39
		c0,1.75-1.37,3.4-3.61,3.4h-2.65V26.5z M48.9,33.29h0.98V26.5H48.9V33.29z M6.87,0H6.31v3.2L3.51,0H3.03v4.13h0.56V0.95l2.77,3.18
		h0.51V0z M0.15,4.13h0.6V0h-0.6V4.13z M60.94,29.94h-2.28v0.88h1.31v1.39c-0.47,0.15-0.95,0.27-1.48,0.27
		c-1.62,0-2.75-1.07-2.75-2.58c0-1.47,1.15-2.6,2.62-2.6c0.82,0,1.65,0.23,2.44,0.67v-0.98c-1.07-0.45-1.63-0.58-2.42-0.58
		c-2.08,0-3.65,1.52-3.65,3.52c0,1.99,1.54,3.45,3.62,3.45c0.95,0,1.69-0.16,2.59-0.56V29.94z M65.96,33.29h0.98V26.5h-0.98V33.29z
		 M77.14,26.5h-5.69v0.87h2.35v5.92h0.98v-5.92h2.36V26.5z M83.14,30.41h2.12l-1.1-2.46L83.14,30.41z M87.56,33.29h-1l-0.91-2h-2.89
		l-0.86,2h-1l2.92-6.83h0.69L87.56,33.29z M92.87,26.5h-0.98v6.79h4.05v-0.88h-3.07V26.5z"/>
</g>
</svg>
