<?xml version="1.0" encoding="utf-8"?>
<!-- Generator: Adobe Illustrator 23.0.0, SVG Export Plug-In . SVG Version: 6.00 Build 0)  -->
<svg version="1.1" id="Слой_1" xmlns="http://www.w3.org/2000/svg" xmlns:xlink="http://www.w3.org/1999/xlink" x="0px" y="0px"
	 viewBox="0 0 57 57" style="enable-background:new 0 0 57 57;" xml:space="preserve">
<style type="text/css">
	.st0{clip-path:url(#SVGID_4_);fill:none;stroke:#531B62;}
	.st1{clip-path:url(#SVGID_10_);fill:none;stroke:#531B62;}
</style>
<g>
	<g>
		<defs>
			<path id="SVGID_1_" d="M56.5,28.5c0-15.46-12.54-28-28-28s-28,12.54-28,28s12.54,28,28,28S56.5,43.96,56.5,28.5"/>
		</defs>
		<clipPath id="SVGID_2_">
			<use xlink:href="#SVGID_1_"  style="overflow:visible;"/>
		</clipPath>
	</g>
	<g>
		<defs>
			<path id="SVGID_3_" d="M56.5,28.5c0-15.46-12.54-28-28-28s-28,12.54-28,28s12.54,28,28,28S56.5,43.96,56.5,28.5"/>
		</defs>
		<clipPath id="SVGID_4_">
			<use xlink:href="#SVGID_3_"  style="overflow:visible;"/>
		</clipPath>
		<line class="st0" x1="11.01" y1="28.5" x2="45.25" y2="28.5"/>
		<polyline class="st0" points="41.25,24.78 45.25,28.5 41.25,32.22 		"/>
	</g>
	<g>
		<defs>
			<path id="SVGID_5_" d="M56.5,28.5c0-15.46-12.54-28-28-28s-28,12.54-28,28s12.54,28,28,28S56.5,43.96,56.5,28.5"/>
		</defs>
		<clipPath id="SVGID_6_">
			<use xlink:href="#SVGID_5_"  style="overflow:visible;"/>
		</clipPath>
	</g>
</g>
<g>
	<g>
		<defs>
			<rect id="SVGID_7_" width="57" height="57"/>
		</defs>
		<clipPath id="SVGID_8_">
			<use xlink:href="#SVGID_7_"  style="overflow:visible;"/>
		</clipPath>
	</g>
	<g>
		<defs>
			<rect id="SVGID_9_" width="57" height="57"/>
		</defs>
		<clipPath id="SVGID_10_">
			<use xlink:href="#SVGID_9_"  style="overflow:visible;"/>
		</clipPath>
		<circle class="st1" cx="28.5" cy="28.5" r="28"/>
	</g>
	<g>
		<defs>
			<rect id="SVGID_11_" width="57" height="57"/>
		</defs>
		<clipPath id="SVGID_12_">
			<use xlink:href="#SVGID_11_"  style="overflow:visible;"/>
		</clipPath>
	</g>
</g>
</svg>
