<?xml version="1.0" encoding="utf-8"?>
<!-- Generator: Adobe Illustrator 23.0.0, SVG Export Plug-In . SVG Version: 6.00 Build 0)  -->
<svg version="1.1" id="Слой_1" xmlns="http://www.w3.org/2000/svg" xmlns:xlink="http://www.w3.org/1999/xlink" x="0px" y="0px"
	 viewBox="0 0 446.98 29.52" style="enable-background:new 0 0 446.98 29.52;" xml:space="preserve">
<style type="text/css">
	.st0{clip-path:url(#SVGID_2_);}
	.st1{clip-path:url(#SVGID_4_);}
	.st2{clip-path:url(#SVGID_6_);}
	.st3{clip-path:url(#SVGID_8_);}
</style>
<g>
	<defs>
		<rect id="SVGID_1_" y="0" width="446.98" height="29.52"/>
	</defs>
	<clipPath id="SVGID_2_">
		<use xlink:href="#SVGID_1_"  style="overflow:visible;"/>
	</clipPath>
	<path class="st0" d="M25.87,11.59c0.76-1.02,1.15-2.51,1.15-4.45c0-2.44-0.6-4.2-1.79-5.28c-1.19-1.08-3.17-1.61-5.95-1.61H0v29.03
		h19.28c2.85,0,4.85-0.56,6-1.68c1.15-1.12,1.73-3.05,1.73-5.79c0-2.48-0.38-4.34-1.15-5.59c-0.77-1.24-2.03-2.07-3.79-2.46
		C23.84,13.34,25.11,12.61,25.87,11.59 M14.94,20.55c0,0.79-0.13,1.34-0.38,1.63c-0.25,0.3-0.7,0.45-1.35,0.45h-1.32V17.3h1.32
		c0.64,0,1.08,0.15,1.34,0.46c0.26,0.31,0.38,0.85,0.38,1.61V20.55z M14.54,10.51c-0.26,0.3-0.71,0.45-1.33,0.45h-1.32v-4.1h1.32
		c0.64,0,1.08,0.15,1.34,0.45c0.26,0.3,0.38,0.84,0.38,1.62C14.94,9.68,14.81,10.21,14.54,10.51 M71.82,0.24H59.71l-3.83,11.73V0.24
		H44.2v29.03h11.67V16.01l4.23,13.27H72.1l-4.86-15.55L71.82,0.24z M120.08,10.07h-3.04V0.24h-11.89v29.03h11.89V16.69h3.04v12.59
		h11.9V0.24h-11.9V10.07z M160.6,1.51c-1.15-0.96-3.09-1.44-5.8-1.44h-12.43c-2.52,0-4.35,0.49-5.51,1.48
		c-1.15,0.99-1.73,2.56-1.73,4.7v16.27c0,2.54,0.54,4.33,1.62,5.39c1.08,1.05,2.95,1.58,5.62,1.58h12.43c2.82,0,4.78-0.51,5.88-1.55
		c1.1-1.03,1.65-2.84,1.65-5.42l0-16.27C162.34,4.05,161.76,2.47,160.6,1.51 M150.26,20.81c0,0.74-0.12,1.27-0.36,1.59
		c-0.24,0.31-0.63,0.47-1.18,0.47c-0.53,0-0.91-0.16-1.15-0.48c-0.24-0.32-0.36-0.85-0.36-1.58V8.71c0-0.73,0.12-1.26,0.36-1.6
		s0.62-0.5,1.15-0.5c0.53,0,0.91,0.17,1.16,0.51c0.25,0.34,0.38,0.87,0.38,1.59V20.81z M199.01,0.07h-12.43
		c-2.66,0-4.54,0.52-5.62,1.56c-1.08,1.04-1.62,2.83-1.62,5.37v16.23c0,2.15,0.58,3.73,1.74,4.74c1.16,1.01,2.99,1.51,5.5,1.51
		h12.43c2.69,0,4.62-0.49,5.78-1.46c1.17-0.97,1.75-2.57,1.75-4.79v-5.8h-12.08v3.37c0,0.72-0.13,1.25-0.38,1.59
		c-0.25,0.34-0.64,0.51-1.16,0.51c-0.53,0-0.91-0.17-1.15-0.5c-0.24-0.33-0.36-0.86-0.36-1.6l0-12.1c0-0.73,0.12-1.26,0.36-1.6
		c0.24-0.33,0.62-0.5,1.15-0.5c0.55,0,0.94,0.16,1.18,0.48c0.24,0.32,0.36,0.86,0.36,1.61v2.11h12.08V7c0-2.57-0.55-4.37-1.64-5.39
		C203.8,0.58,201.84,0.07,199.01,0.07 M313.73,10.07h-3.04V0.24h-11.89v29.03h11.89V16.69h3.04v12.59h11.89V0.24h-11.89V10.07z
		 M354.76,11.59c0.76-1.02,1.15-2.51,1.15-4.45c0-2.44-0.6-4.2-1.79-5.28c-1.19-1.08-3.17-1.61-5.95-1.61h-19.28v29.03h19.28
		c2.85,0,4.85-0.56,6-1.68c1.15-1.12,1.73-3.05,1.73-5.79c0-2.48-0.39-4.34-1.15-5.59c-0.77-1.24-2.03-2.07-3.79-2.46
		C352.73,13.34,354,12.61,354.76,11.59 M343.83,20.55c0,0.79-0.13,1.34-0.38,1.63c-0.25,0.3-0.7,0.45-1.35,0.45h-1.32V17.3h1.32
		c0.64,0,1.08,0.15,1.34,0.46c0.26,0.31,0.38,0.85,0.38,1.61V20.55z M343.43,10.51c-0.26,0.3-0.7,0.45-1.33,0.45h-1.32v-4.1h1.32
		c0.64,0,1.08,0.15,1.34,0.45c0.26,0.3,0.38,0.84,0.38,1.62C343.83,9.68,343.7,10.21,343.43,10.51 M363.23,0.24l-5.37,29.03h12.28
		l0.68-6.28h3.41l0.68,6.28h12.32l-5.37-29.03H363.23z M371.26,16.58l1.28-9.86l1.23,9.86H371.26z M415.08,1.71
		c-1.17-0.98-3.09-1.47-5.78-1.47h-19.48v29.03h11.89V19.9h7.59c2.81,0,4.77-0.52,5.87-1.56c1.11-1.04,1.66-2.86,1.66-5.45V6.49
		C416.83,4.28,416.25,2.69,415.08,1.71 M404.94,11.24c0,0.76-0.13,1.29-0.39,1.61c-0.26,0.31-0.68,0.47-1.27,0.47h-1.58V6.79h1.61
		c0.58,0,0.99,0.16,1.24,0.49c0.25,0.33,0.38,0.87,0.38,1.62V11.24z"/>
</g>
<polygon points="90.12,0.25 85.42,12.22 85.42,0.25 74.57,0.25 74.57,29.27 85.81,29.27 91.01,15.62 91.01,29.27 101.87,29.27 
	101.87,0.25 "/>
<g>
	<defs>
		<rect id="SVGID_3_" y="0" width="446.98" height="29.52"/>
	</defs>
	<clipPath id="SVGID_4_">
		<use xlink:href="#SVGID_3_"  style="overflow:visible;"/>
	</clipPath>
	<path class="st1" d="M270.13,1.71c1.17-0.98,3.09-1.47,5.78-1.47h19.48v29.03H283.5V19.9h-7.59c-2.81,0-4.77-0.52-5.87-1.56
		c-1.11-1.04-1.66-2.86-1.66-5.45V6.49C268.38,4.28,268.96,2.69,270.13,1.71 M280.27,11.24c0,0.76,0.13,1.29,0.38,1.61
		c0.26,0.31,0.68,0.47,1.27,0.47h1.58V6.79h-1.61c-0.57,0-0.99,0.16-1.24,0.49c-0.25,0.33-0.38,0.87-0.38,1.62L280.27,11.24z"/>
</g>
<polygon points="272.75,19.24 268.38,29.3 279.86,29.3 283.82,19.24 "/>
<g>
	<defs>
		<rect id="SVGID_5_" y="0" width="446.98" height="29.52"/>
	</defs>
	<clipPath id="SVGID_6_">
		<use xlink:href="#SVGID_5_"  style="overflow:visible;"/>
	</clipPath>
	<path class="st2" d="M421.72,1.69c1.17-0.98,3.09-1.47,5.78-1.47h19.48v29.03h-11.89v-9.38h-7.59c-2.81,0-4.77-0.52-5.87-1.56
		c-1.1-1.04-1.66-2.86-1.66-5.45V6.47C419.97,4.26,420.55,2.66,421.72,1.69 M431.86,11.22c0,0.76,0.13,1.29,0.39,1.61
		c0.26,0.31,0.68,0.47,1.26,0.47h1.58V6.77h-1.61c-0.57,0-0.99,0.16-1.24,0.49c-0.25,0.33-0.38,0.87-0.38,1.62L431.86,11.22z"/>
</g>
<polygon points="424.35,19.22 419.98,29.27 431.45,29.27 435.41,19.22 "/>
<g>
	<defs>
		<rect id="SVGID_7_" y="0" width="446.98" height="29.52"/>
	</defs>
	<clipPath id="SVGID_8_">
		<use xlink:href="#SVGID_7_"  style="overflow:visible;"/>
	</clipPath>
	<path class="st3" d="M225.85,28.1c1.27,0.94,3.12,1.41,5.54,1.41h12.3c2.42,0,4.26-0.47,5.53-1.41c1.27-0.94,1.91-2.3,1.91-4.08
		V5.5c0-1.79-0.63-3.16-1.9-4.09c-1.26-0.94-3.11-1.4-5.54-1.4h-12.3c-2.54,0-4.42,0.51-5.63,1.52c-1.21,1.01-1.81,2.59-1.81,4.73
		v5.9c0,2.19,0.67,3.84,2.02,4.97c1.35,1.12,3.32,1.68,5.94,1.68c1.26,0,2.46-0.13,3.62-0.38c1.15-0.26,2.3-0.65,3.44-1.19v3.28
		c0,0.88-0.1,1.5-0.31,1.86c-0.21,0.35-0.56,0.53-1.06,0.53c-0.46,0-0.84-0.16-1.12-0.49c-0.28-0.33-0.42-0.76-0.42-1.29v-0.54
		h-12.1v3.44C223.95,25.8,224.58,27.16,225.85,28.1 M238.92,9.93c0,0.69-0.12,1.19-0.35,1.5c-0.23,0.31-0.6,0.47-1.12,0.47
		c-0.53,0-0.9-0.15-1.14-0.45c-0.23-0.3-0.35-0.79-0.35-1.45V8.5c0-0.63,0.12-1.09,0.37-1.4c0.24-0.3,0.62-0.45,1.12-0.45
		c0.5,0,0.87,0.15,1.11,0.46c0.24,0.31,0.36,0.77,0.36,1.39V9.93z"/>
</g>
</svg>
